<mxfile host="Electron" agent="Mozilla/5.0 (Windows NT 10.0; Win64; x64) AppleWebKit/537.36 (KHTML, like Gecko) draw.io/27.0.2 Chrome/134.0.6998.205 Electron/35.3.0 Safari/537.36" version="27.0.2" pages="3">
  <diagram name="EmpAtt" id="kgPoYBrPL9V4wT0mpYDI">
    <mxGraphModel dx="1678" dy="878" grid="1" gridSize="10" guides="1" tooltips="1" connect="1" arrows="1" fold="1" page="1" pageScale="1" pageWidth="850" pageHeight="1100" math="0" shadow="0">
      <root>
        <mxCell id="0" />
        <mxCell id="1" parent="0" />
        <mxCell id="_Dfmq8QnokNg--b9Pdhy-6" value="" style="group;strokeWidth=0;fontFamily=Times New Roman;" parent="1" vertex="1" connectable="0">
          <mxGeometry x="10" y="10" width="1043.4" height="773" as="geometry" />
        </mxCell>
        <mxCell id="juRdR6Y2i5ZXx78mzDni-16" value="" style="rounded=1;whiteSpace=wrap;html=1;textShadow=1;shadow=1;strokeColor=none;" vertex="1" parent="_Dfmq8QnokNg--b9Pdhy-6">
          <mxGeometry x="270" y="90" width="640" height="183" as="geometry" />
        </mxCell>
        <mxCell id="BrMCnz7jSsRfvZ2MoUig-31" value="" style="rounded=0;whiteSpace=wrap;html=1;fontFamily=Times New Roman;" parent="_Dfmq8QnokNg--b9Pdhy-6" vertex="1">
          <mxGeometry width="1024" height="768" as="geometry" />
        </mxCell>
        <mxCell id="_Dfmq8QnokNg--b9Pdhy-9" value="" style="group;fontFamily=Times New Roman;" parent="_Dfmq8QnokNg--b9Pdhy-6" vertex="1" connectable="0">
          <mxGeometry x="660" y="237" width="350" height="222.5" as="geometry" />
        </mxCell>
        <mxCell id="BrMCnz7jSsRfvZ2MoUig-36" value="Search" style="rounded=1;whiteSpace=wrap;html=1;fontFamily=Times New Roman;fontSize=16;fillColor=light-dark(#1ba1e2, #ededed);strokeWidth=0;fontColor=light-dark(#ffffff, #ededed);" parent="_Dfmq8QnokNg--b9Pdhy-9" vertex="1">
          <mxGeometry x="183" y="77" width="140" height="33" as="geometry" />
        </mxCell>
        <mxCell id="juRdR6Y2i5ZXx78mzDni-13" value="" style="group" vertex="1" connectable="0" parent="_Dfmq8QnokNg--b9Pdhy-6">
          <mxGeometry x="1" width="1024" height="770" as="geometry" />
        </mxCell>
        <mxCell id="juRdR6Y2i5ZXx78mzDni-7" value="&lt;font style=&quot;font-size: 20px;&quot;&gt;Human Resource Management System&lt;/font&gt;" style="rounded=0;whiteSpace=wrap;html=1;fillColor=#1BA1E2;fontColor=#ffffff;strokeColor=none;" vertex="1" parent="juRdR6Y2i5ZXx78mzDni-13">
          <mxGeometry width="1024" height="60" as="geometry" />
        </mxCell>
        <mxCell id="juRdR6Y2i5ZXx78mzDni-8" value="" style="rounded=0;whiteSpace=wrap;html=1;fillColor=#DAE8FC;strokeColor=none;shadow=0;" vertex="1" parent="juRdR6Y2i5ZXx78mzDni-13">
          <mxGeometry y="60" width="160" height="710" as="geometry" />
        </mxCell>
        <mxCell id="juRdR6Y2i5ZXx78mzDni-9" value="&lt;font face=&quot;Times New Roman&quot; style=&quot;font-size: 16px; color: rgb(255, 255, 255);&quot;&gt;Attendance&lt;/font&gt;" style="rounded=0;whiteSpace=wrap;html=1;fillColor=light-dark(#0050ef, #198cc4);strokeColor=none;shadow=1;" vertex="1" parent="juRdR6Y2i5ZXx78mzDni-13">
          <mxGeometry x="10" y="131.5" width="140" height="50" as="geometry" />
        </mxCell>
        <mxCell id="juRdR6Y2i5ZXx78mzDni-10" value="&lt;font face=&quot;Times New Roman&quot; style=&quot;font-size: 16px; color: rgb(255, 255, 255);&quot;&gt;Request Leave&lt;/font&gt;" style="rounded=0;whiteSpace=wrap;html=1;fillColor=#1BA1E2;strokeColor=none;shadow=1;" vertex="1" parent="juRdR6Y2i5ZXx78mzDni-13">
          <mxGeometry x="10" y="195" width="140" height="50" as="geometry" />
        </mxCell>
        <mxCell id="juRdR6Y2i5ZXx78mzDni-11" value="&lt;font face=&quot;Times New Roman&quot; color=&quot;#ffffff&quot;&gt;&lt;span style=&quot;font-size: 16px;&quot;&gt;View Leave&lt;/span&gt;&lt;/font&gt;" style="rounded=0;whiteSpace=wrap;html=1;fillColor=#1BA1E2;strokeColor=none;shadow=1;" vertex="1" parent="juRdR6Y2i5ZXx78mzDni-13">
          <mxGeometry x="10" y="257" width="140" height="50" as="geometry" />
        </mxCell>
        <mxCell id="juRdR6Y2i5ZXx78mzDni-12" value="&lt;font face=&quot;Times New Roman&quot; color=&quot;#ffffff&quot;&gt;&lt;span style=&quot;font-size: 16px;&quot;&gt;View Profile&lt;/span&gt;&lt;/font&gt;" style="rounded=0;whiteSpace=wrap;html=1;fillColor=#1BA1E2;strokeColor=none;shadow=1;" vertex="1" parent="juRdR6Y2i5ZXx78mzDni-13">
          <mxGeometry x="10" y="318" width="140" height="50" as="geometry" />
        </mxCell>
        <mxCell id="BrMCnz7jSsRfvZ2MoUig-35" value="&lt;font style=&quot;font-size: 18px;&quot;&gt;&amp;nbsp; &amp;nbsp; May&amp;nbsp; &amp;nbsp;&amp;nbsp;&lt;/font&gt;" style="rounded=0;whiteSpace=wrap;html=1;fillColor=#dae8fc;strokeColor=#6c8ebf;fontFamily=Times New Roman;fontSize=16;align=left;" parent="_Dfmq8QnokNg--b9Pdhy-6" vertex="1">
          <mxGeometry x="632" y="315.45" width="200" height="29.54545454545454" as="geometry" />
        </mxCell>
        <mxCell id="juRdR6Y2i5ZXx78mzDni-21" value="" style="group;strokeWidth=1;strokeColor=#6c8ebf;rounded=1;shadow=1;fillColor=#dae8fc;" vertex="1" connectable="0" parent="_Dfmq8QnokNg--b9Pdhy-6">
          <mxGeometry x="276" y="105" width="640" height="183" as="geometry" />
        </mxCell>
        <mxCell id="juRdR6Y2i5ZXx78mzDni-17" value="&lt;font style=&quot;font-size: 19px;&quot;&gt;CheckOut&lt;/font&gt;" style="rounded=1;whiteSpace=wrap;html=1;fillColor=#0050ef;fontColor=#ffffff;strokeColor=#001DBC;shadow=1;" vertex="1" parent="juRdR6Y2i5ZXx78mzDni-21">
          <mxGeometry x="360" y="79.02272727272727" width="230" height="70.70454545454545" as="geometry" />
        </mxCell>
        <mxCell id="juRdR6Y2i5ZXx78mzDni-18" value="&lt;font style=&quot;font-size: 19px;&quot;&gt;CheckIn&lt;/font&gt;" style="rounded=1;whiteSpace=wrap;html=1;fillColor=#0050ef;fontColor=#ffffff;strokeColor=#001DBC;shadow=1;" vertex="1" parent="juRdR6Y2i5ZXx78mzDni-21">
          <mxGeometry x="70" y="79.02272727272727" width="230" height="70.70454545454545" as="geometry" />
        </mxCell>
        <mxCell id="juRdR6Y2i5ZXx78mzDni-19" value="&lt;font face=&quot;Times New Roman&quot; style=&quot;font-size: 28px;&quot;&gt;2:12pm&lt;/font&gt;" style="text;html=1;align=center;verticalAlign=middle;whiteSpace=wrap;rounded=0;fontFamily=Times New Roman;" vertex="1" parent="juRdR6Y2i5ZXx78mzDni-21">
          <mxGeometry x="290" y="16.636363636363637" width="60" height="24.954545454545453" as="geometry" />
        </mxCell>
        <mxCell id="juRdR6Y2i5ZXx78mzDni-20" value="&lt;font face=&quot;Times New Roman&quot;&gt;Wednesday, 14 May 2025&lt;/font&gt;" style="text;html=1;align=center;verticalAlign=middle;whiteSpace=wrap;rounded=0;" vertex="1" parent="juRdR6Y2i5ZXx78mzDni-21">
          <mxGeometry x="230" y="41.590909090909086" width="180" height="24.954545454545453" as="geometry" />
        </mxCell>
        <mxCell id="_Dfmq8QnokNg--b9Pdhy-7" value="" style="group;fontFamily=Times New Roman;" parent="1" vertex="1" connectable="0">
          <mxGeometry x="190" y="417" width="980" height="430" as="geometry" />
        </mxCell>
        <mxCell id="BrMCnz7jSsRfvZ2MoUig-40" value="" style="rounded=0;whiteSpace=wrap;html=1;fontFamily=Times New Roman;fontSize=16;" parent="_Dfmq8QnokNg--b9Pdhy-7" vertex="1">
          <mxGeometry y="-50" width="809.23" height="400" as="geometry" />
        </mxCell>
        <mxCell id="BrMCnz7jSsRfvZ2MoUig-41" value="Attendance List For &lt;span style=&quot;background-color: light-dark(rgb(255, 255, 255), rgb(84, 51, 0));&quot;&gt;Current Month&lt;/span&gt;" style="text;html=1;align=center;verticalAlign=middle;whiteSpace=wrap;rounded=0;fontFamily=Times New Roman;fontSize=16;fontStyle=1" parent="_Dfmq8QnokNg--b9Pdhy-7" vertex="1">
          <mxGeometry x="265.7012386211014" y="-42.03789473684209" width="256.4389394617719" height="26.116842105263157" as="geometry" />
        </mxCell>
        <mxCell id="BrMCnz7jSsRfvZ2MoUig-42" value="" style="childLayout=tableLayout;recursiveResize=0;shadow=0;fillColor=none;fontFamily=Times New Roman;" parent="_Dfmq8QnokNg--b9Pdhy-7" vertex="1">
          <mxGeometry x="37.10769536885042" y="-0.740000000000002" width="713.6260259662737" height="340.6200000000001" as="geometry" />
        </mxCell>
        <mxCell id="BrMCnz7jSsRfvZ2MoUig-43" style="shape=tableRow;horizontal=0;startSize=0;swimlaneHead=0;swimlaneBody=0;top=0;left=0;bottom=0;right=0;dropTarget=0;collapsible=0;recursiveResize=0;expand=0;fontStyle=0;fillColor=none;strokeColor=inherit;fontFamily=Times New Roman;" parent="BrMCnz7jSsRfvZ2MoUig-42" vertex="1">
          <mxGeometry width="713.6260259662737" height="38" as="geometry" />
        </mxCell>
        <mxCell id="BrMCnz7jSsRfvZ2MoUig-45" value="Date" style="connectable=0;recursiveResize=0;strokeColor=inherit;fillColor=none;align=center;whiteSpace=wrap;html=1;fontFamily=Times New Roman;" parent="BrMCnz7jSsRfvZ2MoUig-43" vertex="1">
          <mxGeometry width="142" height="38" as="geometry">
            <mxRectangle width="142" height="38" as="alternateBounds" />
          </mxGeometry>
        </mxCell>
        <mxCell id="BrMCnz7jSsRfvZ2MoUig-46" value="Check-in Time" style="connectable=0;recursiveResize=0;align=center;whiteSpace=wrap;html=1;verticalAlign=middle;fontFamily=Times New Roman;" parent="BrMCnz7jSsRfvZ2MoUig-43" vertex="1">
          <mxGeometry x="142" width="145" height="38" as="geometry">
            <mxRectangle width="145" height="38" as="alternateBounds" />
          </mxGeometry>
        </mxCell>
        <mxCell id="BrMCnz7jSsRfvZ2MoUig-47" value="Check-out Time" style="connectable=0;recursiveResize=0;strokeColor=inherit;fillColor=none;align=center;whiteSpace=wrap;html=1;fontFamily=Times New Roman;" parent="BrMCnz7jSsRfvZ2MoUig-43" vertex="1">
          <mxGeometry x="287" width="142" height="38" as="geometry">
            <mxRectangle width="142" height="38" as="alternateBounds" />
          </mxGeometry>
        </mxCell>
        <mxCell id="BrMCnz7jSsRfvZ2MoUig-48" value="Working Hours" style="connectable=0;recursiveResize=0;strokeColor=inherit;fillColor=none;align=center;whiteSpace=wrap;html=1;fontFamily=Times New Roman;" parent="BrMCnz7jSsRfvZ2MoUig-43" vertex="1">
          <mxGeometry x="429" width="141" height="38" as="geometry">
            <mxRectangle width="141" height="38" as="alternateBounds" />
          </mxGeometry>
        </mxCell>
        <mxCell id="BrMCnz7jSsRfvZ2MoUig-49" value="Status" style="connectable=0;recursiveResize=0;strokeColor=inherit;fillColor=none;align=center;whiteSpace=wrap;html=1;fontFamily=Times New Roman;" parent="BrMCnz7jSsRfvZ2MoUig-43" vertex="1">
          <mxGeometry x="570" width="144" height="38" as="geometry">
            <mxRectangle width="144" height="38" as="alternateBounds" />
          </mxGeometry>
        </mxCell>
        <mxCell id="BrMCnz7jSsRfvZ2MoUig-50" value="" style="shape=tableRow;horizontal=0;startSize=0;swimlaneHead=0;swimlaneBody=0;top=0;left=0;bottom=0;right=0;dropTarget=0;collapsible=0;recursiveResize=0;expand=0;fontStyle=0;fillColor=none;strokeColor=inherit;fontFamily=Times New Roman;" parent="BrMCnz7jSsRfvZ2MoUig-42" vertex="1">
          <mxGeometry y="38" width="713.6260259662737" height="33" as="geometry" />
        </mxCell>
        <mxCell id="BrMCnz7jSsRfvZ2MoUig-52" style="connectable=0;recursiveResize=0;strokeColor=inherit;fillColor=none;align=center;whiteSpace=wrap;html=1;fontFamily=Times New Roman;" parent="BrMCnz7jSsRfvZ2MoUig-50" vertex="1">
          <mxGeometry width="142" height="33" as="geometry">
            <mxRectangle width="142" height="33" as="alternateBounds" />
          </mxGeometry>
        </mxCell>
        <mxCell id="BrMCnz7jSsRfvZ2MoUig-53" style="connectable=0;recursiveResize=0;strokeColor=inherit;fillColor=none;align=center;whiteSpace=wrap;html=1;fontFamily=Times New Roman;" parent="BrMCnz7jSsRfvZ2MoUig-50" vertex="1">
          <mxGeometry x="142" width="145" height="33" as="geometry">
            <mxRectangle width="145" height="33" as="alternateBounds" />
          </mxGeometry>
        </mxCell>
        <mxCell id="BrMCnz7jSsRfvZ2MoUig-54" style="connectable=0;recursiveResize=0;strokeColor=inherit;fillColor=none;align=center;whiteSpace=wrap;html=1;fontFamily=Times New Roman;" parent="BrMCnz7jSsRfvZ2MoUig-50" vertex="1">
          <mxGeometry x="287" width="142" height="33" as="geometry">
            <mxRectangle width="142" height="33" as="alternateBounds" />
          </mxGeometry>
        </mxCell>
        <mxCell id="BrMCnz7jSsRfvZ2MoUig-55" style="connectable=0;recursiveResize=0;strokeColor=inherit;fillColor=none;align=center;whiteSpace=wrap;html=1;fontFamily=Times New Roman;" parent="BrMCnz7jSsRfvZ2MoUig-50" vertex="1">
          <mxGeometry x="429" width="141" height="33" as="geometry">
            <mxRectangle width="141" height="33" as="alternateBounds" />
          </mxGeometry>
        </mxCell>
        <mxCell id="BrMCnz7jSsRfvZ2MoUig-56" style="connectable=0;recursiveResize=0;strokeColor=inherit;fillColor=none;align=center;whiteSpace=wrap;html=1;fontFamily=Times New Roman;" parent="BrMCnz7jSsRfvZ2MoUig-50" vertex="1">
          <mxGeometry x="570" width="144" height="33" as="geometry">
            <mxRectangle width="144" height="33" as="alternateBounds" />
          </mxGeometry>
        </mxCell>
        <mxCell id="BrMCnz7jSsRfvZ2MoUig-57" style="shape=tableRow;horizontal=0;startSize=0;swimlaneHead=0;swimlaneBody=0;top=0;left=0;bottom=0;right=0;dropTarget=0;collapsible=0;recursiveResize=0;expand=0;fontStyle=0;fillColor=none;strokeColor=inherit;fontFamily=Times New Roman;" parent="BrMCnz7jSsRfvZ2MoUig-42" vertex="1">
          <mxGeometry y="71" width="713.6260259662737" height="30" as="geometry" />
        </mxCell>
        <mxCell id="BrMCnz7jSsRfvZ2MoUig-59" style="connectable=0;recursiveResize=0;strokeColor=inherit;fillColor=none;align=center;whiteSpace=wrap;html=1;fontFamily=Times New Roman;" parent="BrMCnz7jSsRfvZ2MoUig-57" vertex="1">
          <mxGeometry width="142" height="30" as="geometry">
            <mxRectangle width="142" height="30" as="alternateBounds" />
          </mxGeometry>
        </mxCell>
        <mxCell id="BrMCnz7jSsRfvZ2MoUig-60" style="connectable=0;recursiveResize=0;strokeColor=inherit;fillColor=none;align=center;whiteSpace=wrap;html=1;fontFamily=Times New Roman;" parent="BrMCnz7jSsRfvZ2MoUig-57" vertex="1">
          <mxGeometry x="142" width="145" height="30" as="geometry">
            <mxRectangle width="145" height="30" as="alternateBounds" />
          </mxGeometry>
        </mxCell>
        <mxCell id="BrMCnz7jSsRfvZ2MoUig-61" style="connectable=0;recursiveResize=0;strokeColor=inherit;fillColor=none;align=center;whiteSpace=wrap;html=1;fontFamily=Times New Roman;" parent="BrMCnz7jSsRfvZ2MoUig-57" vertex="1">
          <mxGeometry x="287" width="142" height="30" as="geometry">
            <mxRectangle width="142" height="30" as="alternateBounds" />
          </mxGeometry>
        </mxCell>
        <mxCell id="BrMCnz7jSsRfvZ2MoUig-62" style="connectable=0;recursiveResize=0;strokeColor=inherit;fillColor=none;align=center;whiteSpace=wrap;html=1;fontFamily=Times New Roman;" parent="BrMCnz7jSsRfvZ2MoUig-57" vertex="1">
          <mxGeometry x="429" width="141" height="30" as="geometry">
            <mxRectangle width="141" height="30" as="alternateBounds" />
          </mxGeometry>
        </mxCell>
        <mxCell id="BrMCnz7jSsRfvZ2MoUig-63" style="connectable=0;recursiveResize=0;strokeColor=inherit;fillColor=none;align=center;whiteSpace=wrap;html=1;fontFamily=Times New Roman;" parent="BrMCnz7jSsRfvZ2MoUig-57" vertex="1">
          <mxGeometry x="570" width="144" height="30" as="geometry">
            <mxRectangle width="144" height="30" as="alternateBounds" />
          </mxGeometry>
        </mxCell>
        <mxCell id="BrMCnz7jSsRfvZ2MoUig-64" style="shape=tableRow;horizontal=0;startSize=0;swimlaneHead=0;swimlaneBody=0;top=0;left=0;bottom=0;right=0;dropTarget=0;collapsible=0;recursiveResize=0;expand=0;fontStyle=0;fillColor=none;strokeColor=inherit;fontFamily=Times New Roman;" parent="BrMCnz7jSsRfvZ2MoUig-42" vertex="1">
          <mxGeometry y="101" width="713.6260259662737" height="30" as="geometry" />
        </mxCell>
        <mxCell id="BrMCnz7jSsRfvZ2MoUig-66" style="connectable=0;recursiveResize=0;strokeColor=inherit;fillColor=none;align=center;whiteSpace=wrap;html=1;fontFamily=Times New Roman;" parent="BrMCnz7jSsRfvZ2MoUig-64" vertex="1">
          <mxGeometry width="142" height="30" as="geometry">
            <mxRectangle width="142" height="30" as="alternateBounds" />
          </mxGeometry>
        </mxCell>
        <mxCell id="BrMCnz7jSsRfvZ2MoUig-67" style="connectable=0;recursiveResize=0;strokeColor=inherit;fillColor=none;align=center;whiteSpace=wrap;html=1;fontFamily=Times New Roman;" parent="BrMCnz7jSsRfvZ2MoUig-64" vertex="1">
          <mxGeometry x="142" width="145" height="30" as="geometry">
            <mxRectangle width="145" height="30" as="alternateBounds" />
          </mxGeometry>
        </mxCell>
        <mxCell id="BrMCnz7jSsRfvZ2MoUig-68" style="connectable=0;recursiveResize=0;strokeColor=inherit;fillColor=none;align=center;whiteSpace=wrap;html=1;fontFamily=Times New Roman;" parent="BrMCnz7jSsRfvZ2MoUig-64" vertex="1">
          <mxGeometry x="287" width="142" height="30" as="geometry">
            <mxRectangle width="142" height="30" as="alternateBounds" />
          </mxGeometry>
        </mxCell>
        <mxCell id="BrMCnz7jSsRfvZ2MoUig-69" style="connectable=0;recursiveResize=0;strokeColor=inherit;fillColor=none;align=center;whiteSpace=wrap;html=1;fontFamily=Times New Roman;" parent="BrMCnz7jSsRfvZ2MoUig-64" vertex="1">
          <mxGeometry x="429" width="141" height="30" as="geometry">
            <mxRectangle width="141" height="30" as="alternateBounds" />
          </mxGeometry>
        </mxCell>
        <mxCell id="BrMCnz7jSsRfvZ2MoUig-70" style="connectable=0;recursiveResize=0;strokeColor=inherit;fillColor=none;align=center;whiteSpace=wrap;html=1;fontFamily=Times New Roman;" parent="BrMCnz7jSsRfvZ2MoUig-64" vertex="1">
          <mxGeometry x="570" width="144" height="30" as="geometry">
            <mxRectangle width="144" height="30" as="alternateBounds" />
          </mxGeometry>
        </mxCell>
        <mxCell id="BrMCnz7jSsRfvZ2MoUig-71" style="shape=tableRow;horizontal=0;startSize=0;swimlaneHead=0;swimlaneBody=0;top=0;left=0;bottom=0;right=0;dropTarget=0;collapsible=0;recursiveResize=0;expand=0;fontStyle=0;fillColor=none;strokeColor=inherit;fontFamily=Times New Roman;" parent="BrMCnz7jSsRfvZ2MoUig-42" vertex="1">
          <mxGeometry y="131" width="713.6260259662737" height="30" as="geometry" />
        </mxCell>
        <mxCell id="BrMCnz7jSsRfvZ2MoUig-73" style="connectable=0;recursiveResize=0;strokeColor=inherit;fillColor=none;align=center;whiteSpace=wrap;html=1;fontFamily=Times New Roman;" parent="BrMCnz7jSsRfvZ2MoUig-71" vertex="1">
          <mxGeometry width="142" height="30" as="geometry">
            <mxRectangle width="142" height="30" as="alternateBounds" />
          </mxGeometry>
        </mxCell>
        <mxCell id="BrMCnz7jSsRfvZ2MoUig-74" style="connectable=0;recursiveResize=0;strokeColor=inherit;fillColor=none;align=center;whiteSpace=wrap;html=1;fontFamily=Times New Roman;" parent="BrMCnz7jSsRfvZ2MoUig-71" vertex="1">
          <mxGeometry x="142" width="145" height="30" as="geometry">
            <mxRectangle width="145" height="30" as="alternateBounds" />
          </mxGeometry>
        </mxCell>
        <mxCell id="BrMCnz7jSsRfvZ2MoUig-75" style="connectable=0;recursiveResize=0;strokeColor=inherit;fillColor=none;align=center;whiteSpace=wrap;html=1;fontFamily=Times New Roman;" parent="BrMCnz7jSsRfvZ2MoUig-71" vertex="1">
          <mxGeometry x="287" width="142" height="30" as="geometry">
            <mxRectangle width="142" height="30" as="alternateBounds" />
          </mxGeometry>
        </mxCell>
        <mxCell id="BrMCnz7jSsRfvZ2MoUig-76" style="connectable=0;recursiveResize=0;strokeColor=inherit;fillColor=none;align=center;whiteSpace=wrap;html=1;fontFamily=Times New Roman;" parent="BrMCnz7jSsRfvZ2MoUig-71" vertex="1">
          <mxGeometry x="429" width="141" height="30" as="geometry">
            <mxRectangle width="141" height="30" as="alternateBounds" />
          </mxGeometry>
        </mxCell>
        <mxCell id="BrMCnz7jSsRfvZ2MoUig-77" style="connectable=0;recursiveResize=0;strokeColor=inherit;fillColor=none;align=center;whiteSpace=wrap;html=1;fontFamily=Times New Roman;" parent="BrMCnz7jSsRfvZ2MoUig-71" vertex="1">
          <mxGeometry x="570" width="144" height="30" as="geometry">
            <mxRectangle width="144" height="30" as="alternateBounds" />
          </mxGeometry>
        </mxCell>
        <mxCell id="BrMCnz7jSsRfvZ2MoUig-78" style="shape=tableRow;horizontal=0;startSize=0;swimlaneHead=0;swimlaneBody=0;top=0;left=0;bottom=0;right=0;dropTarget=0;collapsible=0;recursiveResize=0;expand=0;fontStyle=0;fillColor=none;strokeColor=inherit;fontFamily=Times New Roman;" parent="BrMCnz7jSsRfvZ2MoUig-42" vertex="1">
          <mxGeometry y="161" width="713.6260259662737" height="30" as="geometry" />
        </mxCell>
        <mxCell id="BrMCnz7jSsRfvZ2MoUig-80" style="connectable=0;recursiveResize=0;strokeColor=inherit;fillColor=none;align=center;whiteSpace=wrap;html=1;fontFamily=Times New Roman;" parent="BrMCnz7jSsRfvZ2MoUig-78" vertex="1">
          <mxGeometry width="142" height="30" as="geometry">
            <mxRectangle width="142" height="30" as="alternateBounds" />
          </mxGeometry>
        </mxCell>
        <mxCell id="BrMCnz7jSsRfvZ2MoUig-81" style="connectable=0;recursiveResize=0;strokeColor=inherit;fillColor=none;align=center;whiteSpace=wrap;html=1;fontFamily=Times New Roman;" parent="BrMCnz7jSsRfvZ2MoUig-78" vertex="1">
          <mxGeometry x="142" width="145" height="30" as="geometry">
            <mxRectangle width="145" height="30" as="alternateBounds" />
          </mxGeometry>
        </mxCell>
        <mxCell id="BrMCnz7jSsRfvZ2MoUig-82" style="connectable=0;recursiveResize=0;strokeColor=inherit;fillColor=none;align=center;whiteSpace=wrap;html=1;fontFamily=Times New Roman;" parent="BrMCnz7jSsRfvZ2MoUig-78" vertex="1">
          <mxGeometry x="287" width="142" height="30" as="geometry">
            <mxRectangle width="142" height="30" as="alternateBounds" />
          </mxGeometry>
        </mxCell>
        <mxCell id="BrMCnz7jSsRfvZ2MoUig-83" style="connectable=0;recursiveResize=0;strokeColor=inherit;fillColor=none;align=center;whiteSpace=wrap;html=1;fontFamily=Times New Roman;" parent="BrMCnz7jSsRfvZ2MoUig-78" vertex="1">
          <mxGeometry x="429" width="141" height="30" as="geometry">
            <mxRectangle width="141" height="30" as="alternateBounds" />
          </mxGeometry>
        </mxCell>
        <mxCell id="BrMCnz7jSsRfvZ2MoUig-84" style="connectable=0;recursiveResize=0;strokeColor=inherit;fillColor=none;align=center;whiteSpace=wrap;html=1;fontFamily=Times New Roman;" parent="BrMCnz7jSsRfvZ2MoUig-78" vertex="1">
          <mxGeometry x="570" width="144" height="30" as="geometry">
            <mxRectangle width="144" height="30" as="alternateBounds" />
          </mxGeometry>
        </mxCell>
        <mxCell id="BrMCnz7jSsRfvZ2MoUig-85" style="shape=tableRow;horizontal=0;startSize=0;swimlaneHead=0;swimlaneBody=0;top=0;left=0;bottom=0;right=0;dropTarget=0;collapsible=0;recursiveResize=0;expand=0;fontStyle=0;fillColor=none;strokeColor=inherit;fontFamily=Times New Roman;" parent="BrMCnz7jSsRfvZ2MoUig-42" vertex="1">
          <mxGeometry y="191" width="713.6260259662737" height="30" as="geometry" />
        </mxCell>
        <mxCell id="BrMCnz7jSsRfvZ2MoUig-87" style="connectable=0;recursiveResize=0;strokeColor=inherit;fillColor=none;align=center;whiteSpace=wrap;html=1;fontFamily=Times New Roman;" parent="BrMCnz7jSsRfvZ2MoUig-85" vertex="1">
          <mxGeometry width="142" height="30" as="geometry">
            <mxRectangle width="142" height="30" as="alternateBounds" />
          </mxGeometry>
        </mxCell>
        <mxCell id="BrMCnz7jSsRfvZ2MoUig-88" style="connectable=0;recursiveResize=0;strokeColor=inherit;fillColor=none;align=center;whiteSpace=wrap;html=1;fontFamily=Times New Roman;" parent="BrMCnz7jSsRfvZ2MoUig-85" vertex="1">
          <mxGeometry x="142" width="145" height="30" as="geometry">
            <mxRectangle width="145" height="30" as="alternateBounds" />
          </mxGeometry>
        </mxCell>
        <mxCell id="BrMCnz7jSsRfvZ2MoUig-89" style="connectable=0;recursiveResize=0;strokeColor=inherit;fillColor=none;align=center;whiteSpace=wrap;html=1;fontFamily=Times New Roman;" parent="BrMCnz7jSsRfvZ2MoUig-85" vertex="1">
          <mxGeometry x="287" width="142" height="30" as="geometry">
            <mxRectangle width="142" height="30" as="alternateBounds" />
          </mxGeometry>
        </mxCell>
        <mxCell id="BrMCnz7jSsRfvZ2MoUig-90" style="connectable=0;recursiveResize=0;strokeColor=inherit;fillColor=none;align=center;whiteSpace=wrap;html=1;fontFamily=Times New Roman;" parent="BrMCnz7jSsRfvZ2MoUig-85" vertex="1">
          <mxGeometry x="429" width="141" height="30" as="geometry">
            <mxRectangle width="141" height="30" as="alternateBounds" />
          </mxGeometry>
        </mxCell>
        <mxCell id="BrMCnz7jSsRfvZ2MoUig-91" style="connectable=0;recursiveResize=0;strokeColor=inherit;fillColor=none;align=center;whiteSpace=wrap;html=1;fontFamily=Times New Roman;" parent="BrMCnz7jSsRfvZ2MoUig-85" vertex="1">
          <mxGeometry x="570" width="144" height="30" as="geometry">
            <mxRectangle width="144" height="30" as="alternateBounds" />
          </mxGeometry>
        </mxCell>
        <mxCell id="BrMCnz7jSsRfvZ2MoUig-92" style="shape=tableRow;horizontal=0;startSize=0;swimlaneHead=0;swimlaneBody=0;top=0;left=0;bottom=0;right=0;dropTarget=0;collapsible=0;recursiveResize=0;expand=0;fontStyle=0;fillColor=none;strokeColor=inherit;fontFamily=Times New Roman;" parent="BrMCnz7jSsRfvZ2MoUig-42" vertex="1">
          <mxGeometry y="221" width="713.6260259662737" height="30" as="geometry" />
        </mxCell>
        <mxCell id="BrMCnz7jSsRfvZ2MoUig-94" style="connectable=0;recursiveResize=0;strokeColor=inherit;fillColor=none;align=center;whiteSpace=wrap;html=1;fontFamily=Times New Roman;" parent="BrMCnz7jSsRfvZ2MoUig-92" vertex="1">
          <mxGeometry width="142" height="30" as="geometry">
            <mxRectangle width="142" height="30" as="alternateBounds" />
          </mxGeometry>
        </mxCell>
        <mxCell id="BrMCnz7jSsRfvZ2MoUig-95" style="connectable=0;recursiveResize=0;strokeColor=inherit;fillColor=none;align=center;whiteSpace=wrap;html=1;fontFamily=Times New Roman;" parent="BrMCnz7jSsRfvZ2MoUig-92" vertex="1">
          <mxGeometry x="142" width="145" height="30" as="geometry">
            <mxRectangle width="145" height="30" as="alternateBounds" />
          </mxGeometry>
        </mxCell>
        <mxCell id="BrMCnz7jSsRfvZ2MoUig-96" style="connectable=0;recursiveResize=0;strokeColor=inherit;fillColor=none;align=center;whiteSpace=wrap;html=1;fontFamily=Times New Roman;" parent="BrMCnz7jSsRfvZ2MoUig-92" vertex="1">
          <mxGeometry x="287" width="142" height="30" as="geometry">
            <mxRectangle width="142" height="30" as="alternateBounds" />
          </mxGeometry>
        </mxCell>
        <mxCell id="BrMCnz7jSsRfvZ2MoUig-97" style="connectable=0;recursiveResize=0;strokeColor=inherit;fillColor=none;align=center;whiteSpace=wrap;html=1;fontFamily=Times New Roman;" parent="BrMCnz7jSsRfvZ2MoUig-92" vertex="1">
          <mxGeometry x="429" width="141" height="30" as="geometry">
            <mxRectangle width="141" height="30" as="alternateBounds" />
          </mxGeometry>
        </mxCell>
        <mxCell id="BrMCnz7jSsRfvZ2MoUig-98" style="connectable=0;recursiveResize=0;strokeColor=inherit;fillColor=none;align=center;whiteSpace=wrap;html=1;fontFamily=Times New Roman;" parent="BrMCnz7jSsRfvZ2MoUig-92" vertex="1">
          <mxGeometry x="570" width="144" height="30" as="geometry">
            <mxRectangle width="144" height="30" as="alternateBounds" />
          </mxGeometry>
        </mxCell>
        <mxCell id="BrMCnz7jSsRfvZ2MoUig-99" style="shape=tableRow;horizontal=0;startSize=0;swimlaneHead=0;swimlaneBody=0;top=0;left=0;bottom=0;right=0;dropTarget=0;collapsible=0;recursiveResize=0;expand=0;fontStyle=0;fillColor=none;strokeColor=inherit;fontFamily=Times New Roman;" parent="BrMCnz7jSsRfvZ2MoUig-42" vertex="1">
          <mxGeometry y="251" width="713.6260259662737" height="30" as="geometry" />
        </mxCell>
        <mxCell id="BrMCnz7jSsRfvZ2MoUig-101" style="connectable=0;recursiveResize=0;strokeColor=inherit;fillColor=none;align=center;whiteSpace=wrap;html=1;fontFamily=Times New Roman;" parent="BrMCnz7jSsRfvZ2MoUig-99" vertex="1">
          <mxGeometry width="142" height="30" as="geometry">
            <mxRectangle width="142" height="30" as="alternateBounds" />
          </mxGeometry>
        </mxCell>
        <mxCell id="BrMCnz7jSsRfvZ2MoUig-102" style="connectable=0;recursiveResize=0;strokeColor=inherit;fillColor=none;align=center;whiteSpace=wrap;html=1;fontFamily=Times New Roman;" parent="BrMCnz7jSsRfvZ2MoUig-99" vertex="1">
          <mxGeometry x="142" width="145" height="30" as="geometry">
            <mxRectangle width="145" height="30" as="alternateBounds" />
          </mxGeometry>
        </mxCell>
        <mxCell id="BrMCnz7jSsRfvZ2MoUig-103" style="connectable=0;recursiveResize=0;strokeColor=inherit;fillColor=none;align=center;whiteSpace=wrap;html=1;fontFamily=Times New Roman;" parent="BrMCnz7jSsRfvZ2MoUig-99" vertex="1">
          <mxGeometry x="287" width="142" height="30" as="geometry">
            <mxRectangle width="142" height="30" as="alternateBounds" />
          </mxGeometry>
        </mxCell>
        <mxCell id="BrMCnz7jSsRfvZ2MoUig-104" style="connectable=0;recursiveResize=0;strokeColor=inherit;fillColor=none;align=center;whiteSpace=wrap;html=1;fontFamily=Times New Roman;" parent="BrMCnz7jSsRfvZ2MoUig-99" vertex="1">
          <mxGeometry x="429" width="141" height="30" as="geometry">
            <mxRectangle width="141" height="30" as="alternateBounds" />
          </mxGeometry>
        </mxCell>
        <mxCell id="BrMCnz7jSsRfvZ2MoUig-105" style="connectable=0;recursiveResize=0;strokeColor=inherit;fillColor=none;align=center;whiteSpace=wrap;html=1;fontFamily=Times New Roman;" parent="BrMCnz7jSsRfvZ2MoUig-99" vertex="1">
          <mxGeometry x="570" width="144" height="30" as="geometry">
            <mxRectangle width="144" height="30" as="alternateBounds" />
          </mxGeometry>
        </mxCell>
        <mxCell id="BrMCnz7jSsRfvZ2MoUig-106" style="shape=tableRow;horizontal=0;startSize=0;swimlaneHead=0;swimlaneBody=0;top=0;left=0;bottom=0;right=0;dropTarget=0;collapsible=0;recursiveResize=0;expand=0;fontStyle=0;fillColor=none;strokeColor=inherit;fontFamily=Times New Roman;" parent="BrMCnz7jSsRfvZ2MoUig-42" vertex="1">
          <mxGeometry y="281" width="713.6260259662737" height="30" as="geometry" />
        </mxCell>
        <mxCell id="BrMCnz7jSsRfvZ2MoUig-108" style="connectable=0;recursiveResize=0;strokeColor=inherit;fillColor=none;align=center;whiteSpace=wrap;html=1;fontFamily=Times New Roman;" parent="BrMCnz7jSsRfvZ2MoUig-106" vertex="1">
          <mxGeometry width="142" height="30" as="geometry">
            <mxRectangle width="142" height="30" as="alternateBounds" />
          </mxGeometry>
        </mxCell>
        <mxCell id="BrMCnz7jSsRfvZ2MoUig-109" style="connectable=0;recursiveResize=0;strokeColor=inherit;fillColor=none;align=center;whiteSpace=wrap;html=1;fontFamily=Times New Roman;" parent="BrMCnz7jSsRfvZ2MoUig-106" vertex="1">
          <mxGeometry x="142" width="145" height="30" as="geometry">
            <mxRectangle width="145" height="30" as="alternateBounds" />
          </mxGeometry>
        </mxCell>
        <mxCell id="BrMCnz7jSsRfvZ2MoUig-110" style="connectable=0;recursiveResize=0;strokeColor=inherit;fillColor=none;align=center;whiteSpace=wrap;html=1;fontFamily=Times New Roman;" parent="BrMCnz7jSsRfvZ2MoUig-106" vertex="1">
          <mxGeometry x="287" width="142" height="30" as="geometry">
            <mxRectangle width="142" height="30" as="alternateBounds" />
          </mxGeometry>
        </mxCell>
        <mxCell id="BrMCnz7jSsRfvZ2MoUig-111" style="connectable=0;recursiveResize=0;strokeColor=inherit;fillColor=none;align=center;whiteSpace=wrap;html=1;fontFamily=Times New Roman;" parent="BrMCnz7jSsRfvZ2MoUig-106" vertex="1">
          <mxGeometry x="429" width="141" height="30" as="geometry">
            <mxRectangle width="141" height="30" as="alternateBounds" />
          </mxGeometry>
        </mxCell>
        <mxCell id="BrMCnz7jSsRfvZ2MoUig-112" style="connectable=0;recursiveResize=0;strokeColor=inherit;fillColor=none;align=center;whiteSpace=wrap;html=1;fontFamily=Times New Roman;" parent="BrMCnz7jSsRfvZ2MoUig-106" vertex="1">
          <mxGeometry x="570" width="144" height="30" as="geometry">
            <mxRectangle width="144" height="30" as="alternateBounds" />
          </mxGeometry>
        </mxCell>
        <mxCell id="juRdR6Y2i5ZXx78mzDni-23" style="shape=tableRow;horizontal=0;startSize=0;swimlaneHead=0;swimlaneBody=0;top=0;left=0;bottom=0;right=0;dropTarget=0;collapsible=0;recursiveResize=0;expand=0;fontStyle=0;fillColor=none;strokeColor=inherit;fontFamily=Times New Roman;" vertex="1" parent="BrMCnz7jSsRfvZ2MoUig-42">
          <mxGeometry y="311" width="713.6260259662737" height="30" as="geometry" />
        </mxCell>
        <mxCell id="juRdR6Y2i5ZXx78mzDni-24" style="connectable=0;recursiveResize=0;strokeColor=inherit;fillColor=none;align=center;whiteSpace=wrap;html=1;fontFamily=Times New Roman;" vertex="1" parent="juRdR6Y2i5ZXx78mzDni-23">
          <mxGeometry width="142" height="30" as="geometry">
            <mxRectangle width="142" height="30" as="alternateBounds" />
          </mxGeometry>
        </mxCell>
        <mxCell id="juRdR6Y2i5ZXx78mzDni-25" style="connectable=0;recursiveResize=0;strokeColor=inherit;fillColor=none;align=center;whiteSpace=wrap;html=1;fontFamily=Times New Roman;" vertex="1" parent="juRdR6Y2i5ZXx78mzDni-23">
          <mxGeometry x="142" width="145" height="30" as="geometry">
            <mxRectangle width="145" height="30" as="alternateBounds" />
          </mxGeometry>
        </mxCell>
        <mxCell id="juRdR6Y2i5ZXx78mzDni-26" style="connectable=0;recursiveResize=0;strokeColor=inherit;fillColor=none;align=center;whiteSpace=wrap;html=1;fontFamily=Times New Roman;" vertex="1" parent="juRdR6Y2i5ZXx78mzDni-23">
          <mxGeometry x="287" width="142" height="30" as="geometry">
            <mxRectangle width="142" height="30" as="alternateBounds" />
          </mxGeometry>
        </mxCell>
        <mxCell id="juRdR6Y2i5ZXx78mzDni-27" style="connectable=0;recursiveResize=0;strokeColor=inherit;fillColor=none;align=center;whiteSpace=wrap;html=1;fontFamily=Times New Roman;" vertex="1" parent="juRdR6Y2i5ZXx78mzDni-23">
          <mxGeometry x="429" width="141" height="30" as="geometry">
            <mxRectangle width="141" height="30" as="alternateBounds" />
          </mxGeometry>
        </mxCell>
        <mxCell id="juRdR6Y2i5ZXx78mzDni-28" style="connectable=0;recursiveResize=0;strokeColor=inherit;fillColor=none;align=center;whiteSpace=wrap;html=1;fontFamily=Times New Roman;" vertex="1" parent="juRdR6Y2i5ZXx78mzDni-23">
          <mxGeometry x="570" width="144" height="30" as="geometry">
            <mxRectangle width="144" height="30" as="alternateBounds" />
          </mxGeometry>
        </mxCell>
        <mxCell id="BrMCnz7jSsRfvZ2MoUig-113" value="" style="group;fontFamily=Times New Roman;" parent="_Dfmq8QnokNg--b9Pdhy-7" vertex="1" connectable="0">
          <mxGeometry x="773.1582350892901" y="38.08" width="200.01691289857237" height="374.92" as="geometry" />
        </mxCell>
        <mxCell id="BrMCnz7jSsRfvZ2MoUig-114" value="" style="rounded=0;whiteSpace=wrap;html=1;rotation=90;strokeWidth=0;shadow=1;fontFamily=Times New Roman;" parent="BrMCnz7jSsRfvZ2MoUig-113" vertex="1">
          <mxGeometry x="-161.23" y="120.72" width="341.24" height="23.44" as="geometry" />
        </mxCell>
        <mxCell id="BrMCnz7jSsRfvZ2MoUig-115" value="" style="rounded=0;whiteSpace=wrap;html=1;rotation=90;fillColor=light-dark(#dae8fc, #ededed);fontFamily=Times New Roman;" parent="BrMCnz7jSsRfvZ2MoUig-113" vertex="1">
          <mxGeometry y="-1.824060000000003" width="18.758529656553215" height="11.71625" as="geometry" />
        </mxCell>
        <mxCell id="BrMCnz7jSsRfvZ2MoUig-116" value="" style="verticalLabelPosition=bottom;verticalAlign=top;html=1;shape=mxgraph.basic.acute_triangle;dx=0.5;gradientColor=light-dark(#333333, #ededed);fontFamily=Times New Roman;" parent="BrMCnz7jSsRfvZ2MoUig-113" vertex="1">
          <mxGeometry x="2.813779448482982" y="-32.53107124999998" width="14.068897242414911" height="18.476526250000003" as="geometry" />
        </mxCell>
        <mxCell id="BrMCnz7jSsRfvZ2MoUig-117" value="" style="verticalLabelPosition=bottom;verticalAlign=top;html=1;shape=mxgraph.basic.acute_triangle;dx=0.5;gradientColor=light-dark(#333333, #ededed);rotation=-180;fontFamily=Times New Roman;" parent="BrMCnz7jSsRfvZ2MoUig-113" vertex="1">
          <mxGeometry x="2.813779448482982" y="280.9732900403227" width="14.068897242414911" height="18.476526250000003" as="geometry" />
        </mxCell>
        <mxCell id="_Dfmq8QnokNg--b9Pdhy-18" value="" style="group;fontFamily=Times New Roman;" parent="1" vertex="1" connectable="0">
          <mxGeometry x="821" y="326" width="20" height="10" as="geometry" />
        </mxCell>
        <mxCell id="_Dfmq8QnokNg--b9Pdhy-22" value="" style="group" parent="_Dfmq8QnokNg--b9Pdhy-18" vertex="1" connectable="0">
          <mxGeometry x="-5" y="12" width="25" height="15" as="geometry" />
        </mxCell>
        <mxCell id="_Dfmq8QnokNg--b9Pdhy-13" value="" style="rounded=0;whiteSpace=wrap;html=1;fillColor=light-dark(#f1f3f4, #ededed);fontFamily=Times New Roman;" parent="_Dfmq8QnokNg--b9Pdhy-22" vertex="1">
          <mxGeometry x="-4" y="4" width="25" height="10" as="geometry" />
        </mxCell>
        <mxCell id="_Dfmq8QnokNg--b9Pdhy-17" value="" style="triangle;whiteSpace=wrap;html=1;rotation=90;fillColor=light-dark(#1f1f1f, #ededed);fontFamily=Times New Roman;" parent="_Dfmq8QnokNg--b9Pdhy-22" vertex="1">
          <mxGeometry x="5" y="2" width="8" height="15" as="geometry" />
        </mxCell>
        <mxCell id="_Dfmq8QnokNg--b9Pdhy-23" value="" style="group" parent="1" vertex="1" connectable="0">
          <mxGeometry x="825" y="349" width="25" height="15" as="geometry" />
        </mxCell>
        <mxCell id="_Dfmq8QnokNg--b9Pdhy-28" value="" style="group;rotation=-180;" parent="_Dfmq8QnokNg--b9Pdhy-23" vertex="1" connectable="0">
          <mxGeometry width="25" height="15" as="geometry" />
        </mxCell>
        <mxCell id="_Dfmq8QnokNg--b9Pdhy-24" value="" style="rounded=0;whiteSpace=wrap;html=1;fillColor=light-dark(#f1f3f4, #ededed);fontFamily=Times New Roman;rotation=-180;" parent="_Dfmq8QnokNg--b9Pdhy-28" vertex="1">
          <mxGeometry x="-13" y="-19" width="25" height="10" as="geometry" />
        </mxCell>
        <mxCell id="_Dfmq8QnokNg--b9Pdhy-25" value="" style="triangle;whiteSpace=wrap;html=1;rotation=-90;fillColor=light-dark(#1f1f1f, #ededed);fontFamily=Times New Roman;" parent="_Dfmq8QnokNg--b9Pdhy-28" vertex="1">
          <mxGeometry x="-4" y="-22" width="8" height="15" as="geometry" />
        </mxCell>
      </root>
    </mxGraphModel>
  </diagram>
  <diagram id="nHJxSuINqT3vLPzL4g_C" name="HRAtt">
    <mxGraphModel dx="1273" dy="537" grid="1" gridSize="10" guides="1" tooltips="1" connect="1" arrows="1" fold="1" page="1" pageScale="1" pageWidth="850" pageHeight="1100" math="0" shadow="0">
      <root>
        <mxCell id="0" />
        <mxCell id="1" parent="0" />
        <mxCell id="dDg8njRnBlv37mtQ12O0-1" value="" style="group;strokeWidth=0;fontFamily=Times New Roman;" vertex="1" connectable="0" parent="1">
          <mxGeometry x="10" y="10" width="1043.4" height="773" as="geometry" />
        </mxCell>
        <mxCell id="dDg8njRnBlv37mtQ12O0-2" value="" style="rounded=1;whiteSpace=wrap;html=1;textShadow=1;shadow=1;strokeColor=none;" vertex="1" parent="dDg8njRnBlv37mtQ12O0-1">
          <mxGeometry x="270" y="90" width="640" height="183" as="geometry" />
        </mxCell>
        <mxCell id="dDg8njRnBlv37mtQ12O0-3" value="" style="rounded=0;whiteSpace=wrap;html=1;fontFamily=Times New Roman;" vertex="1" parent="dDg8njRnBlv37mtQ12O0-1">
          <mxGeometry width="1024" height="768" as="geometry" />
        </mxCell>
        <mxCell id="dDg8njRnBlv37mtQ12O0-4" value="" style="group;fontFamily=Times New Roman;" vertex="1" connectable="0" parent="dDg8njRnBlv37mtQ12O0-1">
          <mxGeometry x="660" y="237" width="350" height="222.5" as="geometry" />
        </mxCell>
        <mxCell id="dDg8njRnBlv37mtQ12O0-5" value="Search" style="rounded=1;whiteSpace=wrap;html=1;fontFamily=Times New Roman;fontSize=16;fillColor=light-dark(#1ba1e2, #ededed);strokeWidth=0;fontColor=light-dark(#ffffff, #ededed);" vertex="1" parent="dDg8njRnBlv37mtQ12O0-4">
          <mxGeometry x="183" y="77" width="140" height="33" as="geometry" />
        </mxCell>
        <mxCell id="dDg8njRnBlv37mtQ12O0-6" value="" style="group" vertex="1" connectable="0" parent="dDg8njRnBlv37mtQ12O0-1">
          <mxGeometry x="1" width="1024" height="770" as="geometry" />
        </mxCell>
        <mxCell id="dDg8njRnBlv37mtQ12O0-7" value="&lt;font style=&quot;font-size: 20px;&quot;&gt;Human Resource Management System&lt;/font&gt;" style="rounded=0;whiteSpace=wrap;html=1;fillColor=#1BA1E2;fontColor=#ffffff;strokeColor=none;" vertex="1" parent="dDg8njRnBlv37mtQ12O0-6">
          <mxGeometry width="1024" height="60" as="geometry" />
        </mxCell>
        <mxCell id="dDg8njRnBlv37mtQ12O0-8" value="" style="rounded=0;whiteSpace=wrap;html=1;fillColor=#DAE8FC;strokeColor=none;shadow=0;" vertex="1" parent="dDg8njRnBlv37mtQ12O0-6">
          <mxGeometry y="60" width="160" height="710" as="geometry" />
        </mxCell>
        <mxCell id="dDg8njRnBlv37mtQ12O0-9" value="&lt;font face=&quot;Times New Roman&quot; style=&quot;font-size: 16px; color: rgb(255, 255, 255);&quot;&gt;Attendance&lt;/font&gt;" style="rounded=0;whiteSpace=wrap;html=1;fillColor=light-dark(#0050ef, #198cc4);strokeColor=none;shadow=1;" vertex="1" parent="dDg8njRnBlv37mtQ12O0-6">
          <mxGeometry x="10" y="131.5" width="140" height="50" as="geometry" />
        </mxCell>
        <mxCell id="dDg8njRnBlv37mtQ12O0-10" value="&lt;font face=&quot;Times New Roman&quot; style=&quot;font-size: 16px; color: rgb(255, 255, 255);&quot;&gt;Request Leave&lt;/font&gt;" style="rounded=0;whiteSpace=wrap;html=1;fillColor=#1BA1E2;strokeColor=none;shadow=1;" vertex="1" parent="dDg8njRnBlv37mtQ12O0-6">
          <mxGeometry x="10" y="195" width="140" height="50" as="geometry" />
        </mxCell>
        <mxCell id="dDg8njRnBlv37mtQ12O0-11" value="&lt;font face=&quot;Times New Roman&quot; color=&quot;#ffffff&quot;&gt;&lt;span style=&quot;font-size: 16px;&quot;&gt;View Leave&lt;/span&gt;&lt;/font&gt;" style="rounded=0;whiteSpace=wrap;html=1;fillColor=#1BA1E2;strokeColor=none;shadow=1;" vertex="1" parent="dDg8njRnBlv37mtQ12O0-6">
          <mxGeometry x="10" y="257" width="140" height="50" as="geometry" />
        </mxCell>
        <mxCell id="dDg8njRnBlv37mtQ12O0-12" value="&lt;font face=&quot;Times New Roman&quot; color=&quot;#ffffff&quot;&gt;&lt;span style=&quot;font-size: 16px;&quot;&gt;View Profile&lt;/span&gt;&lt;/font&gt;" style="rounded=0;whiteSpace=wrap;html=1;fillColor=#1BA1E2;strokeColor=none;shadow=1;" vertex="1" parent="dDg8njRnBlv37mtQ12O0-6">
          <mxGeometry x="10" y="318" width="140" height="50" as="geometry" />
        </mxCell>
        <mxCell id="dDg8njRnBlv37mtQ12O0-13" value="&lt;font style=&quot;font-size: 18px;&quot;&gt;&amp;nbsp; &amp;nbsp; May&amp;nbsp; &amp;nbsp; &amp;nbsp;&lt;/font&gt;" style="rounded=0;whiteSpace=wrap;html=1;fillColor=#dae8fc;strokeColor=#6c8ebf;fontFamily=Times New Roman;fontSize=16;align=left;" vertex="1" parent="dDg8njRnBlv37mtQ12O0-1">
          <mxGeometry x="632" y="315.45" width="200" height="29.54545454545454" as="geometry" />
        </mxCell>
        <mxCell id="dDg8njRnBlv37mtQ12O0-14" value="" style="group;strokeWidth=1;strokeColor=#6c8ebf;rounded=1;shadow=1;fillColor=#dae8fc;" vertex="1" connectable="0" parent="dDg8njRnBlv37mtQ12O0-1">
          <mxGeometry x="276" y="105" width="640" height="183" as="geometry" />
        </mxCell>
        <mxCell id="dDg8njRnBlv37mtQ12O0-15" value="&lt;font style=&quot;font-size: 19px;&quot;&gt;CheckOut&lt;/font&gt;" style="rounded=1;whiteSpace=wrap;html=1;fillColor=#0050ef;fontColor=#ffffff;strokeColor=#001DBC;shadow=1;" vertex="1" parent="dDg8njRnBlv37mtQ12O0-14">
          <mxGeometry x="360" y="79.02272727272727" width="230" height="70.70454545454545" as="geometry" />
        </mxCell>
        <mxCell id="dDg8njRnBlv37mtQ12O0-16" value="&lt;font style=&quot;font-size: 19px;&quot;&gt;CheckIn&lt;/font&gt;" style="rounded=1;whiteSpace=wrap;html=1;fillColor=#0050ef;fontColor=#ffffff;strokeColor=#001DBC;shadow=1;" vertex="1" parent="dDg8njRnBlv37mtQ12O0-14">
          <mxGeometry x="70" y="79.02272727272727" width="230" height="70.70454545454545" as="geometry" />
        </mxCell>
        <mxCell id="dDg8njRnBlv37mtQ12O0-17" value="&lt;font face=&quot;Times New Roman&quot; style=&quot;font-size: 28px;&quot;&gt;2:12pm&lt;/font&gt;" style="text;html=1;align=center;verticalAlign=middle;whiteSpace=wrap;rounded=0;fontFamily=Times New Roman;" vertex="1" parent="dDg8njRnBlv37mtQ12O0-14">
          <mxGeometry x="290" y="16.636363636363637" width="60" height="24.954545454545453" as="geometry" />
        </mxCell>
        <mxCell id="dDg8njRnBlv37mtQ12O0-18" value="&lt;font face=&quot;Times New Roman&quot;&gt;Wednesday, 14 May 2025&lt;/font&gt;" style="text;html=1;align=center;verticalAlign=middle;whiteSpace=wrap;rounded=0;" vertex="1" parent="dDg8njRnBlv37mtQ12O0-14">
          <mxGeometry x="230" y="41.590909090909086" width="180" height="24.954545454545453" as="geometry" />
        </mxCell>
        <mxCell id="dDg8njRnBlv37mtQ12O0-102" value="Check-in &amp;amp; Check-out" style="rounded=0;whiteSpace=wrap;html=1;fillColor=light-dark(#0050ef, #ededed);fontColor=light-dark(#ffffff, #ededed);" vertex="1" parent="dDg8njRnBlv37mtQ12O0-1">
          <mxGeometry x="162" y="60" width="140" height="30" as="geometry" />
        </mxCell>
        <mxCell id="dDg8njRnBlv37mtQ12O0-19" value="" style="group;fontFamily=Times New Roman;" vertex="1" connectable="0" parent="1">
          <mxGeometry x="190" y="417" width="980" height="430" as="geometry" />
        </mxCell>
        <mxCell id="dDg8njRnBlv37mtQ12O0-20" value="" style="rounded=0;whiteSpace=wrap;html=1;fontFamily=Times New Roman;fontSize=16;" vertex="1" parent="dDg8njRnBlv37mtQ12O0-19">
          <mxGeometry y="-50" width="809.23" height="400" as="geometry" />
        </mxCell>
        <mxCell id="dDg8njRnBlv37mtQ12O0-21" value="Attendance List For &lt;span style=&quot;background-color: light-dark(rgb(255, 255, 255), rgb(84, 51, 0));&quot;&gt;Current Month&lt;/span&gt;" style="text;html=1;align=center;verticalAlign=middle;whiteSpace=wrap;rounded=0;fontFamily=Times New Roman;fontSize=16;fontStyle=1" vertex="1" parent="dDg8njRnBlv37mtQ12O0-19">
          <mxGeometry x="265.7012386211014" y="-42.03789473684209" width="256.4389394617719" height="26.116842105263157" as="geometry" />
        </mxCell>
        <mxCell id="dDg8njRnBlv37mtQ12O0-22" value="" style="childLayout=tableLayout;recursiveResize=0;shadow=0;fillColor=none;fontFamily=Times New Roman;" vertex="1" parent="dDg8njRnBlv37mtQ12O0-19">
          <mxGeometry x="37.10769536885042" y="-0.740000000000002" width="713.6260259662737" height="340.6200000000001" as="geometry" />
        </mxCell>
        <mxCell id="dDg8njRnBlv37mtQ12O0-23" style="shape=tableRow;horizontal=0;startSize=0;swimlaneHead=0;swimlaneBody=0;top=0;left=0;bottom=0;right=0;dropTarget=0;collapsible=0;recursiveResize=0;expand=0;fontStyle=0;fillColor=none;strokeColor=inherit;fontFamily=Times New Roman;" vertex="1" parent="dDg8njRnBlv37mtQ12O0-22">
          <mxGeometry width="713.6260259662737" height="38" as="geometry" />
        </mxCell>
        <mxCell id="dDg8njRnBlv37mtQ12O0-24" value="Date" style="connectable=0;recursiveResize=0;strokeColor=inherit;fillColor=none;align=center;whiteSpace=wrap;html=1;fontFamily=Times New Roman;" vertex="1" parent="dDg8njRnBlv37mtQ12O0-23">
          <mxGeometry width="142" height="38" as="geometry">
            <mxRectangle width="142" height="38" as="alternateBounds" />
          </mxGeometry>
        </mxCell>
        <mxCell id="dDg8njRnBlv37mtQ12O0-25" value="Check-in Time" style="connectable=0;recursiveResize=0;align=center;whiteSpace=wrap;html=1;verticalAlign=middle;fontFamily=Times New Roman;" vertex="1" parent="dDg8njRnBlv37mtQ12O0-23">
          <mxGeometry x="142" width="145" height="38" as="geometry">
            <mxRectangle width="145" height="38" as="alternateBounds" />
          </mxGeometry>
        </mxCell>
        <mxCell id="dDg8njRnBlv37mtQ12O0-26" value="Check-out Time" style="connectable=0;recursiveResize=0;strokeColor=inherit;fillColor=none;align=center;whiteSpace=wrap;html=1;fontFamily=Times New Roman;" vertex="1" parent="dDg8njRnBlv37mtQ12O0-23">
          <mxGeometry x="287" width="142" height="38" as="geometry">
            <mxRectangle width="142" height="38" as="alternateBounds" />
          </mxGeometry>
        </mxCell>
        <mxCell id="dDg8njRnBlv37mtQ12O0-27" value="Working Hours" style="connectable=0;recursiveResize=0;strokeColor=inherit;fillColor=none;align=center;whiteSpace=wrap;html=1;fontFamily=Times New Roman;" vertex="1" parent="dDg8njRnBlv37mtQ12O0-23">
          <mxGeometry x="429" width="141" height="38" as="geometry">
            <mxRectangle width="141" height="38" as="alternateBounds" />
          </mxGeometry>
        </mxCell>
        <mxCell id="dDg8njRnBlv37mtQ12O0-28" value="Status" style="connectable=0;recursiveResize=0;strokeColor=inherit;fillColor=none;align=center;whiteSpace=wrap;html=1;fontFamily=Times New Roman;" vertex="1" parent="dDg8njRnBlv37mtQ12O0-23">
          <mxGeometry x="570" width="144" height="38" as="geometry">
            <mxRectangle width="144" height="38" as="alternateBounds" />
          </mxGeometry>
        </mxCell>
        <mxCell id="dDg8njRnBlv37mtQ12O0-29" value="" style="shape=tableRow;horizontal=0;startSize=0;swimlaneHead=0;swimlaneBody=0;top=0;left=0;bottom=0;right=0;dropTarget=0;collapsible=0;recursiveResize=0;expand=0;fontStyle=0;fillColor=none;strokeColor=inherit;fontFamily=Times New Roman;" vertex="1" parent="dDg8njRnBlv37mtQ12O0-22">
          <mxGeometry y="38" width="713.6260259662737" height="33" as="geometry" />
        </mxCell>
        <mxCell id="dDg8njRnBlv37mtQ12O0-30" style="connectable=0;recursiveResize=0;strokeColor=inherit;fillColor=none;align=center;whiteSpace=wrap;html=1;fontFamily=Times New Roman;" vertex="1" parent="dDg8njRnBlv37mtQ12O0-29">
          <mxGeometry width="142" height="33" as="geometry">
            <mxRectangle width="142" height="33" as="alternateBounds" />
          </mxGeometry>
        </mxCell>
        <mxCell id="dDg8njRnBlv37mtQ12O0-31" style="connectable=0;recursiveResize=0;strokeColor=inherit;fillColor=none;align=center;whiteSpace=wrap;html=1;fontFamily=Times New Roman;" vertex="1" parent="dDg8njRnBlv37mtQ12O0-29">
          <mxGeometry x="142" width="145" height="33" as="geometry">
            <mxRectangle width="145" height="33" as="alternateBounds" />
          </mxGeometry>
        </mxCell>
        <mxCell id="dDg8njRnBlv37mtQ12O0-32" style="connectable=0;recursiveResize=0;strokeColor=inherit;fillColor=none;align=center;whiteSpace=wrap;html=1;fontFamily=Times New Roman;" vertex="1" parent="dDg8njRnBlv37mtQ12O0-29">
          <mxGeometry x="287" width="142" height="33" as="geometry">
            <mxRectangle width="142" height="33" as="alternateBounds" />
          </mxGeometry>
        </mxCell>
        <mxCell id="dDg8njRnBlv37mtQ12O0-33" style="connectable=0;recursiveResize=0;strokeColor=inherit;fillColor=none;align=center;whiteSpace=wrap;html=1;fontFamily=Times New Roman;" vertex="1" parent="dDg8njRnBlv37mtQ12O0-29">
          <mxGeometry x="429" width="141" height="33" as="geometry">
            <mxRectangle width="141" height="33" as="alternateBounds" />
          </mxGeometry>
        </mxCell>
        <mxCell id="dDg8njRnBlv37mtQ12O0-34" style="connectable=0;recursiveResize=0;strokeColor=inherit;fillColor=none;align=center;whiteSpace=wrap;html=1;fontFamily=Times New Roman;" vertex="1" parent="dDg8njRnBlv37mtQ12O0-29">
          <mxGeometry x="570" width="144" height="33" as="geometry">
            <mxRectangle width="144" height="33" as="alternateBounds" />
          </mxGeometry>
        </mxCell>
        <mxCell id="dDg8njRnBlv37mtQ12O0-35" style="shape=tableRow;horizontal=0;startSize=0;swimlaneHead=0;swimlaneBody=0;top=0;left=0;bottom=0;right=0;dropTarget=0;collapsible=0;recursiveResize=0;expand=0;fontStyle=0;fillColor=none;strokeColor=inherit;fontFamily=Times New Roman;" vertex="1" parent="dDg8njRnBlv37mtQ12O0-22">
          <mxGeometry y="71" width="713.6260259662737" height="30" as="geometry" />
        </mxCell>
        <mxCell id="dDg8njRnBlv37mtQ12O0-36" style="connectable=0;recursiveResize=0;strokeColor=inherit;fillColor=none;align=center;whiteSpace=wrap;html=1;fontFamily=Times New Roman;" vertex="1" parent="dDg8njRnBlv37mtQ12O0-35">
          <mxGeometry width="142" height="30" as="geometry">
            <mxRectangle width="142" height="30" as="alternateBounds" />
          </mxGeometry>
        </mxCell>
        <mxCell id="dDg8njRnBlv37mtQ12O0-37" style="connectable=0;recursiveResize=0;strokeColor=inherit;fillColor=none;align=center;whiteSpace=wrap;html=1;fontFamily=Times New Roman;" vertex="1" parent="dDg8njRnBlv37mtQ12O0-35">
          <mxGeometry x="142" width="145" height="30" as="geometry">
            <mxRectangle width="145" height="30" as="alternateBounds" />
          </mxGeometry>
        </mxCell>
        <mxCell id="dDg8njRnBlv37mtQ12O0-38" style="connectable=0;recursiveResize=0;strokeColor=inherit;fillColor=none;align=center;whiteSpace=wrap;html=1;fontFamily=Times New Roman;" vertex="1" parent="dDg8njRnBlv37mtQ12O0-35">
          <mxGeometry x="287" width="142" height="30" as="geometry">
            <mxRectangle width="142" height="30" as="alternateBounds" />
          </mxGeometry>
        </mxCell>
        <mxCell id="dDg8njRnBlv37mtQ12O0-39" style="connectable=0;recursiveResize=0;strokeColor=inherit;fillColor=none;align=center;whiteSpace=wrap;html=1;fontFamily=Times New Roman;" vertex="1" parent="dDg8njRnBlv37mtQ12O0-35">
          <mxGeometry x="429" width="141" height="30" as="geometry">
            <mxRectangle width="141" height="30" as="alternateBounds" />
          </mxGeometry>
        </mxCell>
        <mxCell id="dDg8njRnBlv37mtQ12O0-40" style="connectable=0;recursiveResize=0;strokeColor=inherit;fillColor=none;align=center;whiteSpace=wrap;html=1;fontFamily=Times New Roman;" vertex="1" parent="dDg8njRnBlv37mtQ12O0-35">
          <mxGeometry x="570" width="144" height="30" as="geometry">
            <mxRectangle width="144" height="30" as="alternateBounds" />
          </mxGeometry>
        </mxCell>
        <mxCell id="dDg8njRnBlv37mtQ12O0-41" style="shape=tableRow;horizontal=0;startSize=0;swimlaneHead=0;swimlaneBody=0;top=0;left=0;bottom=0;right=0;dropTarget=0;collapsible=0;recursiveResize=0;expand=0;fontStyle=0;fillColor=none;strokeColor=inherit;fontFamily=Times New Roman;" vertex="1" parent="dDg8njRnBlv37mtQ12O0-22">
          <mxGeometry y="101" width="713.6260259662737" height="30" as="geometry" />
        </mxCell>
        <mxCell id="dDg8njRnBlv37mtQ12O0-42" style="connectable=0;recursiveResize=0;strokeColor=inherit;fillColor=none;align=center;whiteSpace=wrap;html=1;fontFamily=Times New Roman;" vertex="1" parent="dDg8njRnBlv37mtQ12O0-41">
          <mxGeometry width="142" height="30" as="geometry">
            <mxRectangle width="142" height="30" as="alternateBounds" />
          </mxGeometry>
        </mxCell>
        <mxCell id="dDg8njRnBlv37mtQ12O0-43" style="connectable=0;recursiveResize=0;strokeColor=inherit;fillColor=none;align=center;whiteSpace=wrap;html=1;fontFamily=Times New Roman;" vertex="1" parent="dDg8njRnBlv37mtQ12O0-41">
          <mxGeometry x="142" width="145" height="30" as="geometry">
            <mxRectangle width="145" height="30" as="alternateBounds" />
          </mxGeometry>
        </mxCell>
        <mxCell id="dDg8njRnBlv37mtQ12O0-44" style="connectable=0;recursiveResize=0;strokeColor=inherit;fillColor=none;align=center;whiteSpace=wrap;html=1;fontFamily=Times New Roman;" vertex="1" parent="dDg8njRnBlv37mtQ12O0-41">
          <mxGeometry x="287" width="142" height="30" as="geometry">
            <mxRectangle width="142" height="30" as="alternateBounds" />
          </mxGeometry>
        </mxCell>
        <mxCell id="dDg8njRnBlv37mtQ12O0-45" style="connectable=0;recursiveResize=0;strokeColor=inherit;fillColor=none;align=center;whiteSpace=wrap;html=1;fontFamily=Times New Roman;" vertex="1" parent="dDg8njRnBlv37mtQ12O0-41">
          <mxGeometry x="429" width="141" height="30" as="geometry">
            <mxRectangle width="141" height="30" as="alternateBounds" />
          </mxGeometry>
        </mxCell>
        <mxCell id="dDg8njRnBlv37mtQ12O0-46" style="connectable=0;recursiveResize=0;strokeColor=inherit;fillColor=none;align=center;whiteSpace=wrap;html=1;fontFamily=Times New Roman;" vertex="1" parent="dDg8njRnBlv37mtQ12O0-41">
          <mxGeometry x="570" width="144" height="30" as="geometry">
            <mxRectangle width="144" height="30" as="alternateBounds" />
          </mxGeometry>
        </mxCell>
        <mxCell id="dDg8njRnBlv37mtQ12O0-47" style="shape=tableRow;horizontal=0;startSize=0;swimlaneHead=0;swimlaneBody=0;top=0;left=0;bottom=0;right=0;dropTarget=0;collapsible=0;recursiveResize=0;expand=0;fontStyle=0;fillColor=none;strokeColor=inherit;fontFamily=Times New Roman;" vertex="1" parent="dDg8njRnBlv37mtQ12O0-22">
          <mxGeometry y="131" width="713.6260259662737" height="30" as="geometry" />
        </mxCell>
        <mxCell id="dDg8njRnBlv37mtQ12O0-48" style="connectable=0;recursiveResize=0;strokeColor=inherit;fillColor=none;align=center;whiteSpace=wrap;html=1;fontFamily=Times New Roman;" vertex="1" parent="dDg8njRnBlv37mtQ12O0-47">
          <mxGeometry width="142" height="30" as="geometry">
            <mxRectangle width="142" height="30" as="alternateBounds" />
          </mxGeometry>
        </mxCell>
        <mxCell id="dDg8njRnBlv37mtQ12O0-49" style="connectable=0;recursiveResize=0;strokeColor=inherit;fillColor=none;align=center;whiteSpace=wrap;html=1;fontFamily=Times New Roman;" vertex="1" parent="dDg8njRnBlv37mtQ12O0-47">
          <mxGeometry x="142" width="145" height="30" as="geometry">
            <mxRectangle width="145" height="30" as="alternateBounds" />
          </mxGeometry>
        </mxCell>
        <mxCell id="dDg8njRnBlv37mtQ12O0-50" style="connectable=0;recursiveResize=0;strokeColor=inherit;fillColor=none;align=center;whiteSpace=wrap;html=1;fontFamily=Times New Roman;" vertex="1" parent="dDg8njRnBlv37mtQ12O0-47">
          <mxGeometry x="287" width="142" height="30" as="geometry">
            <mxRectangle width="142" height="30" as="alternateBounds" />
          </mxGeometry>
        </mxCell>
        <mxCell id="dDg8njRnBlv37mtQ12O0-51" style="connectable=0;recursiveResize=0;strokeColor=inherit;fillColor=none;align=center;whiteSpace=wrap;html=1;fontFamily=Times New Roman;" vertex="1" parent="dDg8njRnBlv37mtQ12O0-47">
          <mxGeometry x="429" width="141" height="30" as="geometry">
            <mxRectangle width="141" height="30" as="alternateBounds" />
          </mxGeometry>
        </mxCell>
        <mxCell id="dDg8njRnBlv37mtQ12O0-52" style="connectable=0;recursiveResize=0;strokeColor=inherit;fillColor=none;align=center;whiteSpace=wrap;html=1;fontFamily=Times New Roman;" vertex="1" parent="dDg8njRnBlv37mtQ12O0-47">
          <mxGeometry x="570" width="144" height="30" as="geometry">
            <mxRectangle width="144" height="30" as="alternateBounds" />
          </mxGeometry>
        </mxCell>
        <mxCell id="dDg8njRnBlv37mtQ12O0-53" style="shape=tableRow;horizontal=0;startSize=0;swimlaneHead=0;swimlaneBody=0;top=0;left=0;bottom=0;right=0;dropTarget=0;collapsible=0;recursiveResize=0;expand=0;fontStyle=0;fillColor=none;strokeColor=inherit;fontFamily=Times New Roman;" vertex="1" parent="dDg8njRnBlv37mtQ12O0-22">
          <mxGeometry y="161" width="713.6260259662737" height="30" as="geometry" />
        </mxCell>
        <mxCell id="dDg8njRnBlv37mtQ12O0-54" style="connectable=0;recursiveResize=0;strokeColor=inherit;fillColor=none;align=center;whiteSpace=wrap;html=1;fontFamily=Times New Roman;" vertex="1" parent="dDg8njRnBlv37mtQ12O0-53">
          <mxGeometry width="142" height="30" as="geometry">
            <mxRectangle width="142" height="30" as="alternateBounds" />
          </mxGeometry>
        </mxCell>
        <mxCell id="dDg8njRnBlv37mtQ12O0-55" style="connectable=0;recursiveResize=0;strokeColor=inherit;fillColor=none;align=center;whiteSpace=wrap;html=1;fontFamily=Times New Roman;" vertex="1" parent="dDg8njRnBlv37mtQ12O0-53">
          <mxGeometry x="142" width="145" height="30" as="geometry">
            <mxRectangle width="145" height="30" as="alternateBounds" />
          </mxGeometry>
        </mxCell>
        <mxCell id="dDg8njRnBlv37mtQ12O0-56" style="connectable=0;recursiveResize=0;strokeColor=inherit;fillColor=none;align=center;whiteSpace=wrap;html=1;fontFamily=Times New Roman;" vertex="1" parent="dDg8njRnBlv37mtQ12O0-53">
          <mxGeometry x="287" width="142" height="30" as="geometry">
            <mxRectangle width="142" height="30" as="alternateBounds" />
          </mxGeometry>
        </mxCell>
        <mxCell id="dDg8njRnBlv37mtQ12O0-57" style="connectable=0;recursiveResize=0;strokeColor=inherit;fillColor=none;align=center;whiteSpace=wrap;html=1;fontFamily=Times New Roman;" vertex="1" parent="dDg8njRnBlv37mtQ12O0-53">
          <mxGeometry x="429" width="141" height="30" as="geometry">
            <mxRectangle width="141" height="30" as="alternateBounds" />
          </mxGeometry>
        </mxCell>
        <mxCell id="dDg8njRnBlv37mtQ12O0-58" style="connectable=0;recursiveResize=0;strokeColor=inherit;fillColor=none;align=center;whiteSpace=wrap;html=1;fontFamily=Times New Roman;" vertex="1" parent="dDg8njRnBlv37mtQ12O0-53">
          <mxGeometry x="570" width="144" height="30" as="geometry">
            <mxRectangle width="144" height="30" as="alternateBounds" />
          </mxGeometry>
        </mxCell>
        <mxCell id="dDg8njRnBlv37mtQ12O0-59" style="shape=tableRow;horizontal=0;startSize=0;swimlaneHead=0;swimlaneBody=0;top=0;left=0;bottom=0;right=0;dropTarget=0;collapsible=0;recursiveResize=0;expand=0;fontStyle=0;fillColor=none;strokeColor=inherit;fontFamily=Times New Roman;" vertex="1" parent="dDg8njRnBlv37mtQ12O0-22">
          <mxGeometry y="191" width="713.6260259662737" height="30" as="geometry" />
        </mxCell>
        <mxCell id="dDg8njRnBlv37mtQ12O0-60" style="connectable=0;recursiveResize=0;strokeColor=inherit;fillColor=none;align=center;whiteSpace=wrap;html=1;fontFamily=Times New Roman;" vertex="1" parent="dDg8njRnBlv37mtQ12O0-59">
          <mxGeometry width="142" height="30" as="geometry">
            <mxRectangle width="142" height="30" as="alternateBounds" />
          </mxGeometry>
        </mxCell>
        <mxCell id="dDg8njRnBlv37mtQ12O0-61" style="connectable=0;recursiveResize=0;strokeColor=inherit;fillColor=none;align=center;whiteSpace=wrap;html=1;fontFamily=Times New Roman;" vertex="1" parent="dDg8njRnBlv37mtQ12O0-59">
          <mxGeometry x="142" width="145" height="30" as="geometry">
            <mxRectangle width="145" height="30" as="alternateBounds" />
          </mxGeometry>
        </mxCell>
        <mxCell id="dDg8njRnBlv37mtQ12O0-62" style="connectable=0;recursiveResize=0;strokeColor=inherit;fillColor=none;align=center;whiteSpace=wrap;html=1;fontFamily=Times New Roman;" vertex="1" parent="dDg8njRnBlv37mtQ12O0-59">
          <mxGeometry x="287" width="142" height="30" as="geometry">
            <mxRectangle width="142" height="30" as="alternateBounds" />
          </mxGeometry>
        </mxCell>
        <mxCell id="dDg8njRnBlv37mtQ12O0-63" style="connectable=0;recursiveResize=0;strokeColor=inherit;fillColor=none;align=center;whiteSpace=wrap;html=1;fontFamily=Times New Roman;" vertex="1" parent="dDg8njRnBlv37mtQ12O0-59">
          <mxGeometry x="429" width="141" height="30" as="geometry">
            <mxRectangle width="141" height="30" as="alternateBounds" />
          </mxGeometry>
        </mxCell>
        <mxCell id="dDg8njRnBlv37mtQ12O0-64" style="connectable=0;recursiveResize=0;strokeColor=inherit;fillColor=none;align=center;whiteSpace=wrap;html=1;fontFamily=Times New Roman;" vertex="1" parent="dDg8njRnBlv37mtQ12O0-59">
          <mxGeometry x="570" width="144" height="30" as="geometry">
            <mxRectangle width="144" height="30" as="alternateBounds" />
          </mxGeometry>
        </mxCell>
        <mxCell id="dDg8njRnBlv37mtQ12O0-65" style="shape=tableRow;horizontal=0;startSize=0;swimlaneHead=0;swimlaneBody=0;top=0;left=0;bottom=0;right=0;dropTarget=0;collapsible=0;recursiveResize=0;expand=0;fontStyle=0;fillColor=none;strokeColor=inherit;fontFamily=Times New Roman;" vertex="1" parent="dDg8njRnBlv37mtQ12O0-22">
          <mxGeometry y="221" width="713.6260259662737" height="30" as="geometry" />
        </mxCell>
        <mxCell id="dDg8njRnBlv37mtQ12O0-66" style="connectable=0;recursiveResize=0;strokeColor=inherit;fillColor=none;align=center;whiteSpace=wrap;html=1;fontFamily=Times New Roman;" vertex="1" parent="dDg8njRnBlv37mtQ12O0-65">
          <mxGeometry width="142" height="30" as="geometry">
            <mxRectangle width="142" height="30" as="alternateBounds" />
          </mxGeometry>
        </mxCell>
        <mxCell id="dDg8njRnBlv37mtQ12O0-67" style="connectable=0;recursiveResize=0;strokeColor=inherit;fillColor=none;align=center;whiteSpace=wrap;html=1;fontFamily=Times New Roman;" vertex="1" parent="dDg8njRnBlv37mtQ12O0-65">
          <mxGeometry x="142" width="145" height="30" as="geometry">
            <mxRectangle width="145" height="30" as="alternateBounds" />
          </mxGeometry>
        </mxCell>
        <mxCell id="dDg8njRnBlv37mtQ12O0-68" style="connectable=0;recursiveResize=0;strokeColor=inherit;fillColor=none;align=center;whiteSpace=wrap;html=1;fontFamily=Times New Roman;" vertex="1" parent="dDg8njRnBlv37mtQ12O0-65">
          <mxGeometry x="287" width="142" height="30" as="geometry">
            <mxRectangle width="142" height="30" as="alternateBounds" />
          </mxGeometry>
        </mxCell>
        <mxCell id="dDg8njRnBlv37mtQ12O0-69" style="connectable=0;recursiveResize=0;strokeColor=inherit;fillColor=none;align=center;whiteSpace=wrap;html=1;fontFamily=Times New Roman;" vertex="1" parent="dDg8njRnBlv37mtQ12O0-65">
          <mxGeometry x="429" width="141" height="30" as="geometry">
            <mxRectangle width="141" height="30" as="alternateBounds" />
          </mxGeometry>
        </mxCell>
        <mxCell id="dDg8njRnBlv37mtQ12O0-70" style="connectable=0;recursiveResize=0;strokeColor=inherit;fillColor=none;align=center;whiteSpace=wrap;html=1;fontFamily=Times New Roman;" vertex="1" parent="dDg8njRnBlv37mtQ12O0-65">
          <mxGeometry x="570" width="144" height="30" as="geometry">
            <mxRectangle width="144" height="30" as="alternateBounds" />
          </mxGeometry>
        </mxCell>
        <mxCell id="dDg8njRnBlv37mtQ12O0-71" style="shape=tableRow;horizontal=0;startSize=0;swimlaneHead=0;swimlaneBody=0;top=0;left=0;bottom=0;right=0;dropTarget=0;collapsible=0;recursiveResize=0;expand=0;fontStyle=0;fillColor=none;strokeColor=inherit;fontFamily=Times New Roman;" vertex="1" parent="dDg8njRnBlv37mtQ12O0-22">
          <mxGeometry y="251" width="713.6260259662737" height="30" as="geometry" />
        </mxCell>
        <mxCell id="dDg8njRnBlv37mtQ12O0-72" style="connectable=0;recursiveResize=0;strokeColor=inherit;fillColor=none;align=center;whiteSpace=wrap;html=1;fontFamily=Times New Roman;" vertex="1" parent="dDg8njRnBlv37mtQ12O0-71">
          <mxGeometry width="142" height="30" as="geometry">
            <mxRectangle width="142" height="30" as="alternateBounds" />
          </mxGeometry>
        </mxCell>
        <mxCell id="dDg8njRnBlv37mtQ12O0-73" style="connectable=0;recursiveResize=0;strokeColor=inherit;fillColor=none;align=center;whiteSpace=wrap;html=1;fontFamily=Times New Roman;" vertex="1" parent="dDg8njRnBlv37mtQ12O0-71">
          <mxGeometry x="142" width="145" height="30" as="geometry">
            <mxRectangle width="145" height="30" as="alternateBounds" />
          </mxGeometry>
        </mxCell>
        <mxCell id="dDg8njRnBlv37mtQ12O0-74" style="connectable=0;recursiveResize=0;strokeColor=inherit;fillColor=none;align=center;whiteSpace=wrap;html=1;fontFamily=Times New Roman;" vertex="1" parent="dDg8njRnBlv37mtQ12O0-71">
          <mxGeometry x="287" width="142" height="30" as="geometry">
            <mxRectangle width="142" height="30" as="alternateBounds" />
          </mxGeometry>
        </mxCell>
        <mxCell id="dDg8njRnBlv37mtQ12O0-75" style="connectable=0;recursiveResize=0;strokeColor=inherit;fillColor=none;align=center;whiteSpace=wrap;html=1;fontFamily=Times New Roman;" vertex="1" parent="dDg8njRnBlv37mtQ12O0-71">
          <mxGeometry x="429" width="141" height="30" as="geometry">
            <mxRectangle width="141" height="30" as="alternateBounds" />
          </mxGeometry>
        </mxCell>
        <mxCell id="dDg8njRnBlv37mtQ12O0-76" style="connectable=0;recursiveResize=0;strokeColor=inherit;fillColor=none;align=center;whiteSpace=wrap;html=1;fontFamily=Times New Roman;" vertex="1" parent="dDg8njRnBlv37mtQ12O0-71">
          <mxGeometry x="570" width="144" height="30" as="geometry">
            <mxRectangle width="144" height="30" as="alternateBounds" />
          </mxGeometry>
        </mxCell>
        <mxCell id="dDg8njRnBlv37mtQ12O0-77" style="shape=tableRow;horizontal=0;startSize=0;swimlaneHead=0;swimlaneBody=0;top=0;left=0;bottom=0;right=0;dropTarget=0;collapsible=0;recursiveResize=0;expand=0;fontStyle=0;fillColor=none;strokeColor=inherit;fontFamily=Times New Roman;" vertex="1" parent="dDg8njRnBlv37mtQ12O0-22">
          <mxGeometry y="281" width="713.6260259662737" height="30" as="geometry" />
        </mxCell>
        <mxCell id="dDg8njRnBlv37mtQ12O0-78" style="connectable=0;recursiveResize=0;strokeColor=inherit;fillColor=none;align=center;whiteSpace=wrap;html=1;fontFamily=Times New Roman;" vertex="1" parent="dDg8njRnBlv37mtQ12O0-77">
          <mxGeometry width="142" height="30" as="geometry">
            <mxRectangle width="142" height="30" as="alternateBounds" />
          </mxGeometry>
        </mxCell>
        <mxCell id="dDg8njRnBlv37mtQ12O0-79" style="connectable=0;recursiveResize=0;strokeColor=inherit;fillColor=none;align=center;whiteSpace=wrap;html=1;fontFamily=Times New Roman;" vertex="1" parent="dDg8njRnBlv37mtQ12O0-77">
          <mxGeometry x="142" width="145" height="30" as="geometry">
            <mxRectangle width="145" height="30" as="alternateBounds" />
          </mxGeometry>
        </mxCell>
        <mxCell id="dDg8njRnBlv37mtQ12O0-80" style="connectable=0;recursiveResize=0;strokeColor=inherit;fillColor=none;align=center;whiteSpace=wrap;html=1;fontFamily=Times New Roman;" vertex="1" parent="dDg8njRnBlv37mtQ12O0-77">
          <mxGeometry x="287" width="142" height="30" as="geometry">
            <mxRectangle width="142" height="30" as="alternateBounds" />
          </mxGeometry>
        </mxCell>
        <mxCell id="dDg8njRnBlv37mtQ12O0-81" style="connectable=0;recursiveResize=0;strokeColor=inherit;fillColor=none;align=center;whiteSpace=wrap;html=1;fontFamily=Times New Roman;" vertex="1" parent="dDg8njRnBlv37mtQ12O0-77">
          <mxGeometry x="429" width="141" height="30" as="geometry">
            <mxRectangle width="141" height="30" as="alternateBounds" />
          </mxGeometry>
        </mxCell>
        <mxCell id="dDg8njRnBlv37mtQ12O0-82" style="connectable=0;recursiveResize=0;strokeColor=inherit;fillColor=none;align=center;whiteSpace=wrap;html=1;fontFamily=Times New Roman;" vertex="1" parent="dDg8njRnBlv37mtQ12O0-77">
          <mxGeometry x="570" width="144" height="30" as="geometry">
            <mxRectangle width="144" height="30" as="alternateBounds" />
          </mxGeometry>
        </mxCell>
        <mxCell id="dDg8njRnBlv37mtQ12O0-83" style="shape=tableRow;horizontal=0;startSize=0;swimlaneHead=0;swimlaneBody=0;top=0;left=0;bottom=0;right=0;dropTarget=0;collapsible=0;recursiveResize=0;expand=0;fontStyle=0;fillColor=none;strokeColor=inherit;fontFamily=Times New Roman;" vertex="1" parent="dDg8njRnBlv37mtQ12O0-22">
          <mxGeometry y="311" width="713.6260259662737" height="30" as="geometry" />
        </mxCell>
        <mxCell id="dDg8njRnBlv37mtQ12O0-84" style="connectable=0;recursiveResize=0;strokeColor=inherit;fillColor=none;align=center;whiteSpace=wrap;html=1;fontFamily=Times New Roman;" vertex="1" parent="dDg8njRnBlv37mtQ12O0-83">
          <mxGeometry width="142" height="30" as="geometry">
            <mxRectangle width="142" height="30" as="alternateBounds" />
          </mxGeometry>
        </mxCell>
        <mxCell id="dDg8njRnBlv37mtQ12O0-85" style="connectable=0;recursiveResize=0;strokeColor=inherit;fillColor=none;align=center;whiteSpace=wrap;html=1;fontFamily=Times New Roman;" vertex="1" parent="dDg8njRnBlv37mtQ12O0-83">
          <mxGeometry x="142" width="145" height="30" as="geometry">
            <mxRectangle width="145" height="30" as="alternateBounds" />
          </mxGeometry>
        </mxCell>
        <mxCell id="dDg8njRnBlv37mtQ12O0-86" style="connectable=0;recursiveResize=0;strokeColor=inherit;fillColor=none;align=center;whiteSpace=wrap;html=1;fontFamily=Times New Roman;" vertex="1" parent="dDg8njRnBlv37mtQ12O0-83">
          <mxGeometry x="287" width="142" height="30" as="geometry">
            <mxRectangle width="142" height="30" as="alternateBounds" />
          </mxGeometry>
        </mxCell>
        <mxCell id="dDg8njRnBlv37mtQ12O0-87" style="connectable=0;recursiveResize=0;strokeColor=inherit;fillColor=none;align=center;whiteSpace=wrap;html=1;fontFamily=Times New Roman;" vertex="1" parent="dDg8njRnBlv37mtQ12O0-83">
          <mxGeometry x="429" width="141" height="30" as="geometry">
            <mxRectangle width="141" height="30" as="alternateBounds" />
          </mxGeometry>
        </mxCell>
        <mxCell id="dDg8njRnBlv37mtQ12O0-88" style="connectable=0;recursiveResize=0;strokeColor=inherit;fillColor=none;align=center;whiteSpace=wrap;html=1;fontFamily=Times New Roman;" vertex="1" parent="dDg8njRnBlv37mtQ12O0-83">
          <mxGeometry x="570" width="144" height="30" as="geometry">
            <mxRectangle width="144" height="30" as="alternateBounds" />
          </mxGeometry>
        </mxCell>
        <mxCell id="dDg8njRnBlv37mtQ12O0-89" value="" style="group;fontFamily=Times New Roman;" vertex="1" connectable="0" parent="dDg8njRnBlv37mtQ12O0-19">
          <mxGeometry x="773.1582350892901" y="38.08" width="200.01691289857237" height="374.92" as="geometry" />
        </mxCell>
        <mxCell id="dDg8njRnBlv37mtQ12O0-90" value="" style="rounded=0;whiteSpace=wrap;html=1;rotation=90;strokeWidth=0;shadow=1;fontFamily=Times New Roman;" vertex="1" parent="dDg8njRnBlv37mtQ12O0-89">
          <mxGeometry x="-161.23" y="120.72" width="341.24" height="23.44" as="geometry" />
        </mxCell>
        <mxCell id="dDg8njRnBlv37mtQ12O0-91" value="" style="rounded=0;whiteSpace=wrap;html=1;rotation=90;fillColor=light-dark(#dae8fc, #ededed);fontFamily=Times New Roman;" vertex="1" parent="dDg8njRnBlv37mtQ12O0-89">
          <mxGeometry y="-1.824060000000003" width="18.758529656553215" height="11.71625" as="geometry" />
        </mxCell>
        <mxCell id="dDg8njRnBlv37mtQ12O0-92" value="" style="verticalLabelPosition=bottom;verticalAlign=top;html=1;shape=mxgraph.basic.acute_triangle;dx=0.5;gradientColor=light-dark(#333333, #ededed);fontFamily=Times New Roman;" vertex="1" parent="dDg8njRnBlv37mtQ12O0-89">
          <mxGeometry x="2.813779448482982" y="-32.53107124999998" width="14.068897242414911" height="18.476526250000003" as="geometry" />
        </mxCell>
        <mxCell id="dDg8njRnBlv37mtQ12O0-93" value="" style="verticalLabelPosition=bottom;verticalAlign=top;html=1;shape=mxgraph.basic.acute_triangle;dx=0.5;gradientColor=light-dark(#333333, #ededed);rotation=-180;fontFamily=Times New Roman;" vertex="1" parent="dDg8njRnBlv37mtQ12O0-89">
          <mxGeometry x="2.813779448482982" y="280.9732900403227" width="14.068897242414911" height="18.476526250000003" as="geometry" />
        </mxCell>
        <mxCell id="dDg8njRnBlv37mtQ12O0-94" value="" style="group;fontFamily=Times New Roman;" vertex="1" connectable="0" parent="1">
          <mxGeometry x="821" y="326" width="20" height="10" as="geometry" />
        </mxCell>
        <mxCell id="dDg8njRnBlv37mtQ12O0-95" value="" style="group" vertex="1" connectable="0" parent="dDg8njRnBlv37mtQ12O0-94">
          <mxGeometry x="-5" y="12" width="25" height="15" as="geometry" />
        </mxCell>
        <mxCell id="dDg8njRnBlv37mtQ12O0-96" value="" style="rounded=0;whiteSpace=wrap;html=1;fillColor=light-dark(#f1f3f4, #ededed);fontFamily=Times New Roman;" vertex="1" parent="dDg8njRnBlv37mtQ12O0-95">
          <mxGeometry x="-4" y="4" width="25" height="10" as="geometry" />
        </mxCell>
        <mxCell id="dDg8njRnBlv37mtQ12O0-97" value="" style="triangle;whiteSpace=wrap;html=1;rotation=90;fillColor=light-dark(#1f1f1f, #ededed);fontFamily=Times New Roman;" vertex="1" parent="dDg8njRnBlv37mtQ12O0-95">
          <mxGeometry x="5" y="2" width="8" height="15" as="geometry" />
        </mxCell>
        <mxCell id="dDg8njRnBlv37mtQ12O0-98" value="" style="group" vertex="1" connectable="0" parent="1">
          <mxGeometry x="825" y="349" width="25" height="15" as="geometry" />
        </mxCell>
        <mxCell id="dDg8njRnBlv37mtQ12O0-99" value="" style="group;rotation=-180;" vertex="1" connectable="0" parent="dDg8njRnBlv37mtQ12O0-98">
          <mxGeometry width="25" height="15" as="geometry" />
        </mxCell>
        <mxCell id="dDg8njRnBlv37mtQ12O0-100" value="" style="rounded=0;whiteSpace=wrap;html=1;fillColor=light-dark(#f1f3f4, #ededed);fontFamily=Times New Roman;rotation=-180;" vertex="1" parent="dDg8njRnBlv37mtQ12O0-99">
          <mxGeometry x="-13" y="-19" width="25" height="10" as="geometry" />
        </mxCell>
        <mxCell id="dDg8njRnBlv37mtQ12O0-101" value="" style="triangle;whiteSpace=wrap;html=1;rotation=-90;fillColor=light-dark(#1f1f1f, #ededed);fontFamily=Times New Roman;" vertex="1" parent="dDg8njRnBlv37mtQ12O0-99">
          <mxGeometry x="-4" y="-22" width="8" height="15" as="geometry" />
        </mxCell>
        <mxCell id="dDg8njRnBlv37mtQ12O0-103" value="Employee&#39;s Attendance" style="rounded=0;whiteSpace=wrap;html=1;fillColor=light-dark(#1ba1e2, #ededed);fontColor=light-dark(#ffffff, #ededed);" vertex="1" parent="1">
          <mxGeometry x="312" y="70" width="140" height="30" as="geometry" />
        </mxCell>
      </root>
    </mxGraphModel>
  </diagram>
  <diagram id="lx6u4-aNwn3DWVQ2BFVN" name="HRVwEmpAtt">
    <mxGraphModel dx="1559" dy="816" grid="1" gridSize="10" guides="1" tooltips="1" connect="1" arrows="1" fold="1" page="1" pageScale="1" pageWidth="850" pageHeight="1100" math="0" shadow="0">
      <root>
        <mxCell id="0" />
        <mxCell id="1" parent="0" />
        <mxCell id="byq470MMegWLu4DMmpn8-1" value="" style="group;strokeWidth=0;fontFamily=Times New Roman;fillColor=none;" vertex="1" connectable="0" parent="1">
          <mxGeometry x="10" y="10" width="1043.4" height="773" as="geometry" />
        </mxCell>
        <mxCell id="byq470MMegWLu4DMmpn8-2" value="" style="rounded=1;whiteSpace=wrap;html=1;textShadow=1;shadow=1;strokeColor=none;" vertex="1" parent="byq470MMegWLu4DMmpn8-1">
          <mxGeometry x="270" y="90" width="640" height="183" as="geometry" />
        </mxCell>
        <mxCell id="byq470MMegWLu4DMmpn8-3" value="" style="rounded=0;whiteSpace=wrap;html=1;fontFamily=Times New Roman;" vertex="1" parent="byq470MMegWLu4DMmpn8-1">
          <mxGeometry width="1024" height="768" as="geometry" />
        </mxCell>
        <mxCell id="byq470MMegWLu4DMmpn8-4" value="" style="group;fontFamily=Times New Roman;" vertex="1" connectable="0" parent="byq470MMegWLu4DMmpn8-1">
          <mxGeometry x="660" y="28" width="350" height="222.5" as="geometry" />
        </mxCell>
        <mxCell id="byq470MMegWLu4DMmpn8-5" value="Search" style="rounded=1;whiteSpace=wrap;html=1;fontFamily=Times New Roman;fontSize=16;fillColor=light-dark(#1ba1e2, #ededed);strokeWidth=0;fontColor=light-dark(#ffffff, #ededed);" vertex="1" parent="byq470MMegWLu4DMmpn8-4">
          <mxGeometry x="258" y="109" width="70" height="30" as="geometry" />
        </mxCell>
        <mxCell id="byq470MMegWLu4DMmpn8-6" value="" style="group" vertex="1" connectable="0" parent="byq470MMegWLu4DMmpn8-1">
          <mxGeometry width="1024" height="770" as="geometry" />
        </mxCell>
        <mxCell id="byq470MMegWLu4DMmpn8-7" value="&lt;font style=&quot;font-size: 20px;&quot;&gt;Human Resource Management System&lt;/font&gt;" style="rounded=0;whiteSpace=wrap;html=1;fillColor=#1BA1E2;fontColor=#ffffff;strokeColor=none;" vertex="1" parent="byq470MMegWLu4DMmpn8-6">
          <mxGeometry width="1024" height="60" as="geometry" />
        </mxCell>
        <mxCell id="byq470MMegWLu4DMmpn8-13" value="&lt;font style=&quot;font-size: 18px;&quot;&gt;&amp;nbsp; &amp;nbsp; May&amp;nbsp; &amp;nbsp;&amp;nbsp;&lt;/font&gt;" style="rounded=0;whiteSpace=wrap;html=1;fillColor=#dae8fc;strokeColor=#6c8ebf;fontFamily=Times New Roman;fontSize=16;align=left;" vertex="1" parent="byq470MMegWLu4DMmpn8-1">
          <mxGeometry x="735" y="137.45" width="170" height="30" as="geometry" />
        </mxCell>
        <mxCell id="byq470MMegWLu4DMmpn8-19" value="Check-in &amp;amp; Check-out" style="rounded=0;whiteSpace=wrap;html=1;fillColor=light-dark(#1ba1e2, #ededed);fontColor=light-dark(#ffffff, #ededed);strokeWidth=0;" vertex="1" parent="byq470MMegWLu4DMmpn8-1">
          <mxGeometry x="162" y="60" width="140" height="30" as="geometry" />
        </mxCell>
        <mxCell id="7_U6yzIYzgvokkV2j78U-9" value="0110" style="rounded=0;whiteSpace=wrap;html=1;" vertex="1" parent="byq470MMegWLu4DMmpn8-1">
          <mxGeometry x="182" y="140" width="120" height="27" as="geometry" />
        </mxCell>
        <mxCell id="7_U6yzIYzgvokkV2j78U-17" value="Theint Thiri" style="rounded=0;whiteSpace=wrap;html=1;" vertex="1" parent="byq470MMegWLu4DMmpn8-1">
          <mxGeometry x="320" y="140" width="150" height="27" as="geometry" />
        </mxCell>
        <mxCell id="c63AyjbdB0I5ag82kwYN-11" value="" style="group" vertex="1" connectable="0" parent="byq470MMegWLu4DMmpn8-1">
          <mxGeometry y="60" width="160" height="708" as="geometry" />
        </mxCell>
        <mxCell id="c63AyjbdB0I5ag82kwYN-3" value="" style="rounded=0;whiteSpace=wrap;html=1;fillColor=#dae8fc;strokeColor=none;" vertex="1" parent="c63AyjbdB0I5ag82kwYN-11">
          <mxGeometry width="160" height="708" as="geometry" />
        </mxCell>
        <mxCell id="c63AyjbdB0I5ag82kwYN-4" value="&lt;font style=&quot;font-size: 16px; color: rgb(255, 255, 255);&quot; face=&quot;Times New Roman&quot;&gt;Attendance&lt;/font&gt;" style="rounded=0;whiteSpace=wrap;html=1;strokeColor=none;fillColor=light-dark(#0050ef, #198cc4);align=center;" vertex="1" parent="c63AyjbdB0I5ag82kwYN-11">
          <mxGeometry x="9" y="25.92676056338028" width="140" height="49.859154929577464" as="geometry" />
        </mxCell>
        <mxCell id="c63AyjbdB0I5ag82kwYN-5" value="&lt;font style=&quot;font-size: 16px; color: rgb(255, 255, 255);&quot; face=&quot;Times New Roman&quot;&gt;Request Leave&lt;/font&gt;" style="rounded=0;whiteSpace=wrap;html=1;strokeColor=none;fillColor=#1BA1E2;align=center;" vertex="1" parent="c63AyjbdB0I5ag82kwYN-11">
          <mxGeometry x="9" y="89.74647887323944" width="140" height="49.859154929577464" as="geometry" />
        </mxCell>
        <mxCell id="c63AyjbdB0I5ag82kwYN-6" value="&lt;font face=&quot;Times New Roman&quot; color=&quot;#ffffff&quot;&gt;&lt;span style=&quot;font-size: 16px;&quot;&gt;&amp;nbsp;Employee Leave&lt;/span&gt;&lt;/font&gt;" style="rounded=0;whiteSpace=wrap;html=1;strokeColor=none;fillColor=#1BA1E2;align=center;" vertex="1" parent="c63AyjbdB0I5ag82kwYN-11">
          <mxGeometry x="9" y="149.57746478873239" width="140" height="49.859154929577464" as="geometry" />
        </mxCell>
        <mxCell id="c63AyjbdB0I5ag82kwYN-7" value="&lt;font face=&quot;Times New Roman&quot; color=&quot;#ffffff&quot;&gt;&lt;span style=&quot;font-size: 16px;&quot;&gt;Add Employee&lt;/span&gt;&lt;/font&gt;" style="rounded=0;whiteSpace=wrap;html=1;strokeColor=none;fillColor=#1BA1E2;align=center;" vertex="1" parent="c63AyjbdB0I5ag82kwYN-11">
          <mxGeometry x="9" y="209.40845070422534" width="140" height="49.859154929577464" as="geometry" />
        </mxCell>
        <mxCell id="c63AyjbdB0I5ag82kwYN-8" value="&lt;font face=&quot;Times New Roman&quot; color=&quot;#ffffff&quot;&gt;&lt;span style=&quot;font-size: 16px;&quot;&gt;View Employee&lt;/span&gt;&lt;/font&gt;" style="rounded=0;whiteSpace=wrap;html=1;strokeColor=none;fillColor=#1BA1E2;align=center;" vertex="1" parent="c63AyjbdB0I5ag82kwYN-11">
          <mxGeometry x="9" y="269.23943661971833" width="140" height="49.859154929577464" as="geometry" />
        </mxCell>
        <mxCell id="c63AyjbdB0I5ag82kwYN-9" value="&lt;font face=&quot;Times New Roman&quot; color=&quot;#ffffff&quot;&gt;&lt;span style=&quot;font-size: 16px;&quot;&gt;Report&lt;/span&gt;&lt;/font&gt;" style="rounded=0;whiteSpace=wrap;html=1;strokeColor=none;fillColor=#1BA1E2;align=center;" vertex="1" parent="c63AyjbdB0I5ag82kwYN-11">
          <mxGeometry x="9" y="329.07042253521126" width="140" height="49.859154929577464" as="geometry" />
        </mxCell>
        <mxCell id="c63AyjbdB0I5ag82kwYN-10" value="&lt;font face=&quot;Times New Roman&quot; color=&quot;#ffffff&quot;&gt;&lt;span style=&quot;font-size: 16px;&quot;&gt;View Profile&lt;/span&gt;&lt;/font&gt;" style="rounded=0;whiteSpace=wrap;html=1;strokeColor=none;fillColor=#1BA1E2;align=center;" vertex="1" parent="c63AyjbdB0I5ag82kwYN-11">
          <mxGeometry x="9" y="388.90140845070425" width="140" height="49.859154929577464" as="geometry" />
        </mxCell>
        <mxCell id="byq470MMegWLu4DMmpn8-95" value="" style="group;fontFamily=Times New Roman;" vertex="1" connectable="0" parent="1">
          <mxGeometry x="896" y="148" width="20" height="10" as="geometry" />
        </mxCell>
        <mxCell id="byq470MMegWLu4DMmpn8-96" value="" style="group" vertex="1" connectable="0" parent="byq470MMegWLu4DMmpn8-95">
          <mxGeometry x="-5" y="12" width="25" height="15" as="geometry" />
        </mxCell>
        <mxCell id="byq470MMegWLu4DMmpn8-97" value="" style="rounded=0;whiteSpace=wrap;html=1;fillColor=light-dark(#f1f3f4, #ededed);fontFamily=Times New Roman;" vertex="1" parent="byq470MMegWLu4DMmpn8-96">
          <mxGeometry x="-4" y="4" width="25" height="10" as="geometry" />
        </mxCell>
        <mxCell id="byq470MMegWLu4DMmpn8-98" value="" style="triangle;whiteSpace=wrap;html=1;rotation=90;fillColor=light-dark(#1f1f1f, #ededed);fontFamily=Times New Roman;" vertex="1" parent="byq470MMegWLu4DMmpn8-96">
          <mxGeometry x="5" y="2" width="8" height="15" as="geometry" />
        </mxCell>
        <mxCell id="byq470MMegWLu4DMmpn8-99" value="" style="group" vertex="1" connectable="0" parent="1">
          <mxGeometry x="825" y="349" width="25" height="15" as="geometry" />
        </mxCell>
        <mxCell id="byq470MMegWLu4DMmpn8-100" value="" style="group;rotation=-180;" vertex="1" connectable="0" parent="byq470MMegWLu4DMmpn8-99">
          <mxGeometry width="25" height="15" as="geometry" />
        </mxCell>
        <mxCell id="byq470MMegWLu4DMmpn8-101" value="" style="rounded=0;whiteSpace=wrap;html=1;fillColor=light-dark(#f1f3f4, #ededed);fontFamily=Times New Roman;rotation=-180;" vertex="1" parent="byq470MMegWLu4DMmpn8-100">
          <mxGeometry x="62" y="-197" width="25" height="10" as="geometry" />
        </mxCell>
        <mxCell id="byq470MMegWLu4DMmpn8-102" value="" style="triangle;whiteSpace=wrap;html=1;rotation=-90;fillColor=light-dark(#1f1f1f, #ededed);fontFamily=Times New Roman;" vertex="1" parent="byq470MMegWLu4DMmpn8-100">
          <mxGeometry x="71" y="-200" width="8" height="15" as="geometry" />
        </mxCell>
        <mxCell id="byq470MMegWLu4DMmpn8-103" value="Employee&#39;s Attendance" style="rounded=0;whiteSpace=wrap;html=1;fillColor=light-dark(#0050ef, #ededed);fontColor=light-dark(#ffffff, #ededed);strokeWidth=0;" vertex="1" parent="1">
          <mxGeometry x="312" y="70" width="140" height="30" as="geometry" />
        </mxCell>
        <mxCell id="byq470MMegWLu4DMmpn8-21" value="" style="rounded=0;whiteSpace=wrap;html=1;fontFamily=Times New Roman;fontSize=16;" vertex="1" parent="1">
          <mxGeometry x="190" y="182" width="809.23" height="588" as="geometry" />
        </mxCell>
        <mxCell id="byq470MMegWLu4DMmpn8-22" value="Attendance List For &lt;span style=&quot;background-color: light-dark(rgb(255, 255, 255), rgb(84, 51, 0));&quot;&gt;Current Month&lt;/span&gt;" style="text;html=1;align=center;verticalAlign=middle;whiteSpace=wrap;rounded=0;fontFamily=Times New Roman;fontSize=16;fontStyle=1" vertex="1" parent="1">
          <mxGeometry x="455.7012386211014" y="190.96210526315792" width="256.4389394617719" height="26.116842105263157" as="geometry" />
        </mxCell>
        <mxCell id="byq470MMegWLu4DMmpn8-23" value="" style="childLayout=tableLayout;recursiveResize=0;shadow=0;fillColor=none;fontFamily=Times New Roman;" vertex="1" parent="1">
          <mxGeometry x="227.11" y="232.26" width="700" height="514.74" as="geometry" />
        </mxCell>
        <mxCell id="byq470MMegWLu4DMmpn8-24" style="shape=tableRow;horizontal=0;startSize=0;swimlaneHead=0;swimlaneBody=0;top=0;left=0;bottom=0;right=0;dropTarget=0;collapsible=0;recursiveResize=0;expand=0;fontStyle=0;fillColor=none;strokeColor=inherit;fontFamily=Times New Roman;" vertex="1" parent="byq470MMegWLu4DMmpn8-23">
          <mxGeometry width="700" height="57" as="geometry" />
        </mxCell>
        <mxCell id="byq470MMegWLu4DMmpn8-25" value="Date" style="connectable=0;recursiveResize=0;strokeColor=inherit;fillColor=none;align=center;whiteSpace=wrap;html=1;fontFamily=Times New Roman;" vertex="1" parent="byq470MMegWLu4DMmpn8-24">
          <mxGeometry width="87" height="57" as="geometry">
            <mxRectangle width="87" height="57" as="alternateBounds" />
          </mxGeometry>
        </mxCell>
        <mxCell id="PYUOiwf6VcUCYmX6G_hZ-1" value="Employee ID" style="connectable=0;recursiveResize=0;align=center;whiteSpace=wrap;html=1;verticalAlign=middle;fontFamily=Times New Roman;" vertex="1" parent="byq470MMegWLu4DMmpn8-24">
          <mxGeometry x="87" width="88" height="57" as="geometry">
            <mxRectangle width="88" height="57" as="alternateBounds" />
          </mxGeometry>
        </mxCell>
        <mxCell id="PYUOiwf6VcUCYmX6G_hZ-12" value="Name" style="connectable=0;recursiveResize=0;align=center;whiteSpace=wrap;html=1;verticalAlign=middle;fontFamily=Times New Roman;" vertex="1" parent="byq470MMegWLu4DMmpn8-24">
          <mxGeometry x="175" width="88" height="57" as="geometry">
            <mxRectangle width="88" height="57" as="alternateBounds" />
          </mxGeometry>
        </mxCell>
        <mxCell id="byq470MMegWLu4DMmpn8-26" value="Department" style="connectable=0;recursiveResize=0;align=center;whiteSpace=wrap;html=1;verticalAlign=middle;fontFamily=Times New Roman;" vertex="1" parent="byq470MMegWLu4DMmpn8-24">
          <mxGeometry x="263" width="88" height="57" as="geometry">
            <mxRectangle width="88" height="57" as="alternateBounds" />
          </mxGeometry>
        </mxCell>
        <mxCell id="PYUOiwf6VcUCYmX6G_hZ-23" value="Check-in Time" style="connectable=0;recursiveResize=0;align=center;whiteSpace=wrap;html=1;verticalAlign=middle;fontFamily=Times New Roman;" vertex="1" parent="byq470MMegWLu4DMmpn8-24">
          <mxGeometry x="351" width="89" height="57" as="geometry">
            <mxRectangle width="89" height="57" as="alternateBounds" />
          </mxGeometry>
        </mxCell>
        <mxCell id="byq470MMegWLu4DMmpn8-27" value="Check-out Time" style="connectable=0;recursiveResize=0;strokeColor=inherit;fillColor=none;align=center;whiteSpace=wrap;html=1;fontFamily=Times New Roman;" vertex="1" parent="byq470MMegWLu4DMmpn8-24">
          <mxGeometry x="440" width="86" height="57" as="geometry">
            <mxRectangle width="86" height="57" as="alternateBounds" />
          </mxGeometry>
        </mxCell>
        <mxCell id="byq470MMegWLu4DMmpn8-28" value="Working Hours" style="connectable=0;recursiveResize=0;strokeColor=inherit;fillColor=none;align=center;whiteSpace=wrap;html=1;fontFamily=Times New Roman;" vertex="1" parent="byq470MMegWLu4DMmpn8-24">
          <mxGeometry x="526" width="87" height="57" as="geometry">
            <mxRectangle width="87" height="57" as="alternateBounds" />
          </mxGeometry>
        </mxCell>
        <mxCell id="byq470MMegWLu4DMmpn8-29" value="Status" style="connectable=0;recursiveResize=0;strokeColor=inherit;fillColor=none;align=center;whiteSpace=wrap;html=1;fontFamily=Times New Roman;" vertex="1" parent="byq470MMegWLu4DMmpn8-24">
          <mxGeometry x="613" width="87" height="57" as="geometry">
            <mxRectangle width="87" height="57" as="alternateBounds" />
          </mxGeometry>
        </mxCell>
        <mxCell id="byq470MMegWLu4DMmpn8-30" value="" style="shape=tableRow;horizontal=0;startSize=0;swimlaneHead=0;swimlaneBody=0;top=0;left=0;bottom=0;right=0;dropTarget=0;collapsible=0;recursiveResize=0;expand=0;fontStyle=0;fillColor=none;strokeColor=inherit;fontFamily=Times New Roman;" vertex="1" parent="byq470MMegWLu4DMmpn8-23">
          <mxGeometry y="57" width="700" height="50" as="geometry" />
        </mxCell>
        <mxCell id="byq470MMegWLu4DMmpn8-31" style="connectable=0;recursiveResize=0;strokeColor=inherit;fillColor=none;align=center;whiteSpace=wrap;html=1;fontFamily=Times New Roman;" vertex="1" parent="byq470MMegWLu4DMmpn8-30">
          <mxGeometry width="87" height="50" as="geometry">
            <mxRectangle width="87" height="50" as="alternateBounds" />
          </mxGeometry>
        </mxCell>
        <mxCell id="PYUOiwf6VcUCYmX6G_hZ-2" style="connectable=0;recursiveResize=0;strokeColor=inherit;fillColor=none;align=center;whiteSpace=wrap;html=1;fontFamily=Times New Roman;" vertex="1" parent="byq470MMegWLu4DMmpn8-30">
          <mxGeometry x="87" width="88" height="50" as="geometry">
            <mxRectangle width="88" height="50" as="alternateBounds" />
          </mxGeometry>
        </mxCell>
        <mxCell id="PYUOiwf6VcUCYmX6G_hZ-13" style="connectable=0;recursiveResize=0;strokeColor=inherit;fillColor=none;align=center;whiteSpace=wrap;html=1;fontFamily=Times New Roman;" vertex="1" parent="byq470MMegWLu4DMmpn8-30">
          <mxGeometry x="175" width="88" height="50" as="geometry">
            <mxRectangle width="88" height="50" as="alternateBounds" />
          </mxGeometry>
        </mxCell>
        <mxCell id="byq470MMegWLu4DMmpn8-32" style="connectable=0;recursiveResize=0;strokeColor=inherit;fillColor=none;align=center;whiteSpace=wrap;html=1;fontFamily=Times New Roman;" vertex="1" parent="byq470MMegWLu4DMmpn8-30">
          <mxGeometry x="263" width="88" height="50" as="geometry">
            <mxRectangle width="88" height="50" as="alternateBounds" />
          </mxGeometry>
        </mxCell>
        <mxCell id="PYUOiwf6VcUCYmX6G_hZ-24" style="connectable=0;recursiveResize=0;strokeColor=inherit;fillColor=none;align=center;whiteSpace=wrap;html=1;fontFamily=Times New Roman;" vertex="1" parent="byq470MMegWLu4DMmpn8-30">
          <mxGeometry x="351" width="89" height="50" as="geometry">
            <mxRectangle width="89" height="50" as="alternateBounds" />
          </mxGeometry>
        </mxCell>
        <mxCell id="byq470MMegWLu4DMmpn8-33" style="connectable=0;recursiveResize=0;strokeColor=inherit;fillColor=none;align=center;whiteSpace=wrap;html=1;fontFamily=Times New Roman;" vertex="1" parent="byq470MMegWLu4DMmpn8-30">
          <mxGeometry x="440" width="86" height="50" as="geometry">
            <mxRectangle width="86" height="50" as="alternateBounds" />
          </mxGeometry>
        </mxCell>
        <mxCell id="byq470MMegWLu4DMmpn8-34" style="connectable=0;recursiveResize=0;strokeColor=inherit;fillColor=none;align=center;whiteSpace=wrap;html=1;fontFamily=Times New Roman;" vertex="1" parent="byq470MMegWLu4DMmpn8-30">
          <mxGeometry x="526" width="87" height="50" as="geometry">
            <mxRectangle width="87" height="50" as="alternateBounds" />
          </mxGeometry>
        </mxCell>
        <mxCell id="byq470MMegWLu4DMmpn8-35" style="connectable=0;recursiveResize=0;strokeColor=inherit;fillColor=none;align=center;whiteSpace=wrap;html=1;fontFamily=Times New Roman;" vertex="1" parent="byq470MMegWLu4DMmpn8-30">
          <mxGeometry x="613" width="87" height="50" as="geometry">
            <mxRectangle width="87" height="50" as="alternateBounds" />
          </mxGeometry>
        </mxCell>
        <mxCell id="byq470MMegWLu4DMmpn8-36" style="shape=tableRow;horizontal=0;startSize=0;swimlaneHead=0;swimlaneBody=0;top=0;left=0;bottom=0;right=0;dropTarget=0;collapsible=0;recursiveResize=0;expand=0;fontStyle=0;fillColor=none;strokeColor=inherit;fontFamily=Times New Roman;" vertex="1" parent="byq470MMegWLu4DMmpn8-23">
          <mxGeometry y="107" width="700" height="45" as="geometry" />
        </mxCell>
        <mxCell id="byq470MMegWLu4DMmpn8-37" style="connectable=0;recursiveResize=0;strokeColor=inherit;fillColor=none;align=center;whiteSpace=wrap;html=1;fontFamily=Times New Roman;" vertex="1" parent="byq470MMegWLu4DMmpn8-36">
          <mxGeometry width="87" height="45" as="geometry">
            <mxRectangle width="87" height="45" as="alternateBounds" />
          </mxGeometry>
        </mxCell>
        <mxCell id="PYUOiwf6VcUCYmX6G_hZ-3" style="connectable=0;recursiveResize=0;strokeColor=inherit;fillColor=none;align=center;whiteSpace=wrap;html=1;fontFamily=Times New Roman;" vertex="1" parent="byq470MMegWLu4DMmpn8-36">
          <mxGeometry x="87" width="88" height="45" as="geometry">
            <mxRectangle width="88" height="45" as="alternateBounds" />
          </mxGeometry>
        </mxCell>
        <mxCell id="PYUOiwf6VcUCYmX6G_hZ-14" style="connectable=0;recursiveResize=0;strokeColor=inherit;fillColor=none;align=center;whiteSpace=wrap;html=1;fontFamily=Times New Roman;" vertex="1" parent="byq470MMegWLu4DMmpn8-36">
          <mxGeometry x="175" width="88" height="45" as="geometry">
            <mxRectangle width="88" height="45" as="alternateBounds" />
          </mxGeometry>
        </mxCell>
        <mxCell id="byq470MMegWLu4DMmpn8-38" style="connectable=0;recursiveResize=0;strokeColor=inherit;fillColor=none;align=center;whiteSpace=wrap;html=1;fontFamily=Times New Roman;" vertex="1" parent="byq470MMegWLu4DMmpn8-36">
          <mxGeometry x="263" width="88" height="45" as="geometry">
            <mxRectangle width="88" height="45" as="alternateBounds" />
          </mxGeometry>
        </mxCell>
        <mxCell id="PYUOiwf6VcUCYmX6G_hZ-25" style="connectable=0;recursiveResize=0;strokeColor=inherit;fillColor=none;align=center;whiteSpace=wrap;html=1;fontFamily=Times New Roman;" vertex="1" parent="byq470MMegWLu4DMmpn8-36">
          <mxGeometry x="351" width="89" height="45" as="geometry">
            <mxRectangle width="89" height="45" as="alternateBounds" />
          </mxGeometry>
        </mxCell>
        <mxCell id="byq470MMegWLu4DMmpn8-39" style="connectable=0;recursiveResize=0;strokeColor=inherit;fillColor=none;align=center;whiteSpace=wrap;html=1;fontFamily=Times New Roman;" vertex="1" parent="byq470MMegWLu4DMmpn8-36">
          <mxGeometry x="440" width="86" height="45" as="geometry">
            <mxRectangle width="86" height="45" as="alternateBounds" />
          </mxGeometry>
        </mxCell>
        <mxCell id="byq470MMegWLu4DMmpn8-40" style="connectable=0;recursiveResize=0;strokeColor=inherit;fillColor=none;align=center;whiteSpace=wrap;html=1;fontFamily=Times New Roman;" vertex="1" parent="byq470MMegWLu4DMmpn8-36">
          <mxGeometry x="526" width="87" height="45" as="geometry">
            <mxRectangle width="87" height="45" as="alternateBounds" />
          </mxGeometry>
        </mxCell>
        <mxCell id="byq470MMegWLu4DMmpn8-41" style="connectable=0;recursiveResize=0;strokeColor=inherit;fillColor=none;align=center;whiteSpace=wrap;html=1;fontFamily=Times New Roman;" vertex="1" parent="byq470MMegWLu4DMmpn8-36">
          <mxGeometry x="613" width="87" height="45" as="geometry">
            <mxRectangle width="87" height="45" as="alternateBounds" />
          </mxGeometry>
        </mxCell>
        <mxCell id="byq470MMegWLu4DMmpn8-42" style="shape=tableRow;horizontal=0;startSize=0;swimlaneHead=0;swimlaneBody=0;top=0;left=0;bottom=0;right=0;dropTarget=0;collapsible=0;recursiveResize=0;expand=0;fontStyle=0;fillColor=none;strokeColor=inherit;fontFamily=Times New Roman;" vertex="1" parent="byq470MMegWLu4DMmpn8-23">
          <mxGeometry y="152" width="700" height="46" as="geometry" />
        </mxCell>
        <mxCell id="byq470MMegWLu4DMmpn8-43" style="connectable=0;recursiveResize=0;strokeColor=inherit;fillColor=none;align=center;whiteSpace=wrap;html=1;fontFamily=Times New Roman;" vertex="1" parent="byq470MMegWLu4DMmpn8-42">
          <mxGeometry width="87" height="46" as="geometry">
            <mxRectangle width="87" height="46" as="alternateBounds" />
          </mxGeometry>
        </mxCell>
        <mxCell id="PYUOiwf6VcUCYmX6G_hZ-4" style="connectable=0;recursiveResize=0;strokeColor=inherit;fillColor=none;align=center;whiteSpace=wrap;html=1;fontFamily=Times New Roman;" vertex="1" parent="byq470MMegWLu4DMmpn8-42">
          <mxGeometry x="87" width="88" height="46" as="geometry">
            <mxRectangle width="88" height="46" as="alternateBounds" />
          </mxGeometry>
        </mxCell>
        <mxCell id="PYUOiwf6VcUCYmX6G_hZ-15" style="connectable=0;recursiveResize=0;strokeColor=inherit;fillColor=none;align=center;whiteSpace=wrap;html=1;fontFamily=Times New Roman;" vertex="1" parent="byq470MMegWLu4DMmpn8-42">
          <mxGeometry x="175" width="88" height="46" as="geometry">
            <mxRectangle width="88" height="46" as="alternateBounds" />
          </mxGeometry>
        </mxCell>
        <mxCell id="byq470MMegWLu4DMmpn8-44" style="connectable=0;recursiveResize=0;strokeColor=inherit;fillColor=none;align=center;whiteSpace=wrap;html=1;fontFamily=Times New Roman;" vertex="1" parent="byq470MMegWLu4DMmpn8-42">
          <mxGeometry x="263" width="88" height="46" as="geometry">
            <mxRectangle width="88" height="46" as="alternateBounds" />
          </mxGeometry>
        </mxCell>
        <mxCell id="PYUOiwf6VcUCYmX6G_hZ-26" style="connectable=0;recursiveResize=0;strokeColor=inherit;fillColor=none;align=center;whiteSpace=wrap;html=1;fontFamily=Times New Roman;" vertex="1" parent="byq470MMegWLu4DMmpn8-42">
          <mxGeometry x="351" width="89" height="46" as="geometry">
            <mxRectangle width="89" height="46" as="alternateBounds" />
          </mxGeometry>
        </mxCell>
        <mxCell id="byq470MMegWLu4DMmpn8-45" style="connectable=0;recursiveResize=0;strokeColor=inherit;fillColor=none;align=center;whiteSpace=wrap;html=1;fontFamily=Times New Roman;" vertex="1" parent="byq470MMegWLu4DMmpn8-42">
          <mxGeometry x="440" width="86" height="46" as="geometry">
            <mxRectangle width="86" height="46" as="alternateBounds" />
          </mxGeometry>
        </mxCell>
        <mxCell id="byq470MMegWLu4DMmpn8-46" style="connectable=0;recursiveResize=0;strokeColor=inherit;fillColor=none;align=center;whiteSpace=wrap;html=1;fontFamily=Times New Roman;" vertex="1" parent="byq470MMegWLu4DMmpn8-42">
          <mxGeometry x="526" width="87" height="46" as="geometry">
            <mxRectangle width="87" height="46" as="alternateBounds" />
          </mxGeometry>
        </mxCell>
        <mxCell id="byq470MMegWLu4DMmpn8-47" style="connectable=0;recursiveResize=0;strokeColor=inherit;fillColor=none;align=center;whiteSpace=wrap;html=1;fontFamily=Times New Roman;" vertex="1" parent="byq470MMegWLu4DMmpn8-42">
          <mxGeometry x="613" width="87" height="46" as="geometry">
            <mxRectangle width="87" height="46" as="alternateBounds" />
          </mxGeometry>
        </mxCell>
        <mxCell id="byq470MMegWLu4DMmpn8-48" style="shape=tableRow;horizontal=0;startSize=0;swimlaneHead=0;swimlaneBody=0;top=0;left=0;bottom=0;right=0;dropTarget=0;collapsible=0;recursiveResize=0;expand=0;fontStyle=0;fillColor=none;strokeColor=inherit;fontFamily=Times New Roman;" vertex="1" parent="byq470MMegWLu4DMmpn8-23">
          <mxGeometry y="198" width="700" height="45" as="geometry" />
        </mxCell>
        <mxCell id="byq470MMegWLu4DMmpn8-49" style="connectable=0;recursiveResize=0;strokeColor=inherit;fillColor=none;align=center;whiteSpace=wrap;html=1;fontFamily=Times New Roman;" vertex="1" parent="byq470MMegWLu4DMmpn8-48">
          <mxGeometry width="87" height="45" as="geometry">
            <mxRectangle width="87" height="45" as="alternateBounds" />
          </mxGeometry>
        </mxCell>
        <mxCell id="PYUOiwf6VcUCYmX6G_hZ-5" style="connectable=0;recursiveResize=0;strokeColor=inherit;fillColor=none;align=center;whiteSpace=wrap;html=1;fontFamily=Times New Roman;" vertex="1" parent="byq470MMegWLu4DMmpn8-48">
          <mxGeometry x="87" width="88" height="45" as="geometry">
            <mxRectangle width="88" height="45" as="alternateBounds" />
          </mxGeometry>
        </mxCell>
        <mxCell id="PYUOiwf6VcUCYmX6G_hZ-16" style="connectable=0;recursiveResize=0;strokeColor=inherit;fillColor=none;align=center;whiteSpace=wrap;html=1;fontFamily=Times New Roman;" vertex="1" parent="byq470MMegWLu4DMmpn8-48">
          <mxGeometry x="175" width="88" height="45" as="geometry">
            <mxRectangle width="88" height="45" as="alternateBounds" />
          </mxGeometry>
        </mxCell>
        <mxCell id="byq470MMegWLu4DMmpn8-50" style="connectable=0;recursiveResize=0;strokeColor=inherit;fillColor=none;align=center;whiteSpace=wrap;html=1;fontFamily=Times New Roman;" vertex="1" parent="byq470MMegWLu4DMmpn8-48">
          <mxGeometry x="263" width="88" height="45" as="geometry">
            <mxRectangle width="88" height="45" as="alternateBounds" />
          </mxGeometry>
        </mxCell>
        <mxCell id="PYUOiwf6VcUCYmX6G_hZ-27" style="connectable=0;recursiveResize=0;strokeColor=inherit;fillColor=none;align=center;whiteSpace=wrap;html=1;fontFamily=Times New Roman;" vertex="1" parent="byq470MMegWLu4DMmpn8-48">
          <mxGeometry x="351" width="89" height="45" as="geometry">
            <mxRectangle width="89" height="45" as="alternateBounds" />
          </mxGeometry>
        </mxCell>
        <mxCell id="byq470MMegWLu4DMmpn8-51" style="connectable=0;recursiveResize=0;strokeColor=inherit;fillColor=none;align=center;whiteSpace=wrap;html=1;fontFamily=Times New Roman;" vertex="1" parent="byq470MMegWLu4DMmpn8-48">
          <mxGeometry x="440" width="86" height="45" as="geometry">
            <mxRectangle width="86" height="45" as="alternateBounds" />
          </mxGeometry>
        </mxCell>
        <mxCell id="byq470MMegWLu4DMmpn8-52" style="connectable=0;recursiveResize=0;strokeColor=inherit;fillColor=none;align=center;whiteSpace=wrap;html=1;fontFamily=Times New Roman;" vertex="1" parent="byq470MMegWLu4DMmpn8-48">
          <mxGeometry x="526" width="87" height="45" as="geometry">
            <mxRectangle width="87" height="45" as="alternateBounds" />
          </mxGeometry>
        </mxCell>
        <mxCell id="byq470MMegWLu4DMmpn8-53" style="connectable=0;recursiveResize=0;strokeColor=inherit;fillColor=none;align=center;whiteSpace=wrap;html=1;fontFamily=Times New Roman;" vertex="1" parent="byq470MMegWLu4DMmpn8-48">
          <mxGeometry x="613" width="87" height="45" as="geometry">
            <mxRectangle width="87" height="45" as="alternateBounds" />
          </mxGeometry>
        </mxCell>
        <mxCell id="byq470MMegWLu4DMmpn8-54" style="shape=tableRow;horizontal=0;startSize=0;swimlaneHead=0;swimlaneBody=0;top=0;left=0;bottom=0;right=0;dropTarget=0;collapsible=0;recursiveResize=0;expand=0;fontStyle=0;fillColor=none;strokeColor=inherit;fontFamily=Times New Roman;" vertex="1" parent="byq470MMegWLu4DMmpn8-23">
          <mxGeometry y="243" width="700" height="45" as="geometry" />
        </mxCell>
        <mxCell id="byq470MMegWLu4DMmpn8-55" style="connectable=0;recursiveResize=0;strokeColor=inherit;fillColor=none;align=center;whiteSpace=wrap;html=1;fontFamily=Times New Roman;" vertex="1" parent="byq470MMegWLu4DMmpn8-54">
          <mxGeometry width="87" height="45" as="geometry">
            <mxRectangle width="87" height="45" as="alternateBounds" />
          </mxGeometry>
        </mxCell>
        <mxCell id="PYUOiwf6VcUCYmX6G_hZ-6" style="connectable=0;recursiveResize=0;strokeColor=inherit;fillColor=none;align=center;whiteSpace=wrap;html=1;fontFamily=Times New Roman;" vertex="1" parent="byq470MMegWLu4DMmpn8-54">
          <mxGeometry x="87" width="88" height="45" as="geometry">
            <mxRectangle width="88" height="45" as="alternateBounds" />
          </mxGeometry>
        </mxCell>
        <mxCell id="PYUOiwf6VcUCYmX6G_hZ-17" style="connectable=0;recursiveResize=0;strokeColor=inherit;fillColor=none;align=center;whiteSpace=wrap;html=1;fontFamily=Times New Roman;" vertex="1" parent="byq470MMegWLu4DMmpn8-54">
          <mxGeometry x="175" width="88" height="45" as="geometry">
            <mxRectangle width="88" height="45" as="alternateBounds" />
          </mxGeometry>
        </mxCell>
        <mxCell id="byq470MMegWLu4DMmpn8-56" style="connectable=0;recursiveResize=0;strokeColor=inherit;fillColor=none;align=center;whiteSpace=wrap;html=1;fontFamily=Times New Roman;" vertex="1" parent="byq470MMegWLu4DMmpn8-54">
          <mxGeometry x="263" width="88" height="45" as="geometry">
            <mxRectangle width="88" height="45" as="alternateBounds" />
          </mxGeometry>
        </mxCell>
        <mxCell id="PYUOiwf6VcUCYmX6G_hZ-28" style="connectable=0;recursiveResize=0;strokeColor=inherit;fillColor=none;align=center;whiteSpace=wrap;html=1;fontFamily=Times New Roman;" vertex="1" parent="byq470MMegWLu4DMmpn8-54">
          <mxGeometry x="351" width="89" height="45" as="geometry">
            <mxRectangle width="89" height="45" as="alternateBounds" />
          </mxGeometry>
        </mxCell>
        <mxCell id="byq470MMegWLu4DMmpn8-57" style="connectable=0;recursiveResize=0;strokeColor=inherit;fillColor=none;align=center;whiteSpace=wrap;html=1;fontFamily=Times New Roman;" vertex="1" parent="byq470MMegWLu4DMmpn8-54">
          <mxGeometry x="440" width="86" height="45" as="geometry">
            <mxRectangle width="86" height="45" as="alternateBounds" />
          </mxGeometry>
        </mxCell>
        <mxCell id="byq470MMegWLu4DMmpn8-58" style="connectable=0;recursiveResize=0;strokeColor=inherit;fillColor=none;align=center;whiteSpace=wrap;html=1;fontFamily=Times New Roman;" vertex="1" parent="byq470MMegWLu4DMmpn8-54">
          <mxGeometry x="526" width="87" height="45" as="geometry">
            <mxRectangle width="87" height="45" as="alternateBounds" />
          </mxGeometry>
        </mxCell>
        <mxCell id="byq470MMegWLu4DMmpn8-59" style="connectable=0;recursiveResize=0;strokeColor=inherit;fillColor=none;align=center;whiteSpace=wrap;html=1;fontFamily=Times New Roman;" vertex="1" parent="byq470MMegWLu4DMmpn8-54">
          <mxGeometry x="613" width="87" height="45" as="geometry">
            <mxRectangle width="87" height="45" as="alternateBounds" />
          </mxGeometry>
        </mxCell>
        <mxCell id="byq470MMegWLu4DMmpn8-60" style="shape=tableRow;horizontal=0;startSize=0;swimlaneHead=0;swimlaneBody=0;top=0;left=0;bottom=0;right=0;dropTarget=0;collapsible=0;recursiveResize=0;expand=0;fontStyle=0;fillColor=none;strokeColor=inherit;fontFamily=Times New Roman;" vertex="1" parent="byq470MMegWLu4DMmpn8-23">
          <mxGeometry y="288" width="700" height="46" as="geometry" />
        </mxCell>
        <mxCell id="byq470MMegWLu4DMmpn8-61" style="connectable=0;recursiveResize=0;strokeColor=inherit;fillColor=none;align=center;whiteSpace=wrap;html=1;fontFamily=Times New Roman;" vertex="1" parent="byq470MMegWLu4DMmpn8-60">
          <mxGeometry width="87" height="46" as="geometry">
            <mxRectangle width="87" height="46" as="alternateBounds" />
          </mxGeometry>
        </mxCell>
        <mxCell id="PYUOiwf6VcUCYmX6G_hZ-7" style="connectable=0;recursiveResize=0;strokeColor=inherit;fillColor=none;align=center;whiteSpace=wrap;html=1;fontFamily=Times New Roman;" vertex="1" parent="byq470MMegWLu4DMmpn8-60">
          <mxGeometry x="87" width="88" height="46" as="geometry">
            <mxRectangle width="88" height="46" as="alternateBounds" />
          </mxGeometry>
        </mxCell>
        <mxCell id="PYUOiwf6VcUCYmX6G_hZ-18" style="connectable=0;recursiveResize=0;strokeColor=inherit;fillColor=none;align=center;whiteSpace=wrap;html=1;fontFamily=Times New Roman;" vertex="1" parent="byq470MMegWLu4DMmpn8-60">
          <mxGeometry x="175" width="88" height="46" as="geometry">
            <mxRectangle width="88" height="46" as="alternateBounds" />
          </mxGeometry>
        </mxCell>
        <mxCell id="byq470MMegWLu4DMmpn8-62" style="connectable=0;recursiveResize=0;strokeColor=inherit;fillColor=none;align=center;whiteSpace=wrap;html=1;fontFamily=Times New Roman;" vertex="1" parent="byq470MMegWLu4DMmpn8-60">
          <mxGeometry x="263" width="88" height="46" as="geometry">
            <mxRectangle width="88" height="46" as="alternateBounds" />
          </mxGeometry>
        </mxCell>
        <mxCell id="PYUOiwf6VcUCYmX6G_hZ-29" style="connectable=0;recursiveResize=0;strokeColor=inherit;fillColor=none;align=center;whiteSpace=wrap;html=1;fontFamily=Times New Roman;" vertex="1" parent="byq470MMegWLu4DMmpn8-60">
          <mxGeometry x="351" width="89" height="46" as="geometry">
            <mxRectangle width="89" height="46" as="alternateBounds" />
          </mxGeometry>
        </mxCell>
        <mxCell id="byq470MMegWLu4DMmpn8-63" style="connectable=0;recursiveResize=0;strokeColor=inherit;fillColor=none;align=center;whiteSpace=wrap;html=1;fontFamily=Times New Roman;" vertex="1" parent="byq470MMegWLu4DMmpn8-60">
          <mxGeometry x="440" width="86" height="46" as="geometry">
            <mxRectangle width="86" height="46" as="alternateBounds" />
          </mxGeometry>
        </mxCell>
        <mxCell id="byq470MMegWLu4DMmpn8-64" style="connectable=0;recursiveResize=0;strokeColor=inherit;fillColor=none;align=center;whiteSpace=wrap;html=1;fontFamily=Times New Roman;" vertex="1" parent="byq470MMegWLu4DMmpn8-60">
          <mxGeometry x="526" width="87" height="46" as="geometry">
            <mxRectangle width="87" height="46" as="alternateBounds" />
          </mxGeometry>
        </mxCell>
        <mxCell id="byq470MMegWLu4DMmpn8-65" style="connectable=0;recursiveResize=0;strokeColor=inherit;fillColor=none;align=center;whiteSpace=wrap;html=1;fontFamily=Times New Roman;" vertex="1" parent="byq470MMegWLu4DMmpn8-60">
          <mxGeometry x="613" width="87" height="46" as="geometry">
            <mxRectangle width="87" height="46" as="alternateBounds" />
          </mxGeometry>
        </mxCell>
        <mxCell id="byq470MMegWLu4DMmpn8-66" style="shape=tableRow;horizontal=0;startSize=0;swimlaneHead=0;swimlaneBody=0;top=0;left=0;bottom=0;right=0;dropTarget=0;collapsible=0;recursiveResize=0;expand=0;fontStyle=0;fillColor=none;strokeColor=inherit;fontFamily=Times New Roman;" vertex="1" parent="byq470MMegWLu4DMmpn8-23">
          <mxGeometry y="334" width="700" height="45" as="geometry" />
        </mxCell>
        <mxCell id="byq470MMegWLu4DMmpn8-67" style="connectable=0;recursiveResize=0;strokeColor=inherit;fillColor=none;align=center;whiteSpace=wrap;html=1;fontFamily=Times New Roman;" vertex="1" parent="byq470MMegWLu4DMmpn8-66">
          <mxGeometry width="87" height="45" as="geometry">
            <mxRectangle width="87" height="45" as="alternateBounds" />
          </mxGeometry>
        </mxCell>
        <mxCell id="PYUOiwf6VcUCYmX6G_hZ-8" style="connectable=0;recursiveResize=0;strokeColor=inherit;fillColor=none;align=center;whiteSpace=wrap;html=1;fontFamily=Times New Roman;" vertex="1" parent="byq470MMegWLu4DMmpn8-66">
          <mxGeometry x="87" width="88" height="45" as="geometry">
            <mxRectangle width="88" height="45" as="alternateBounds" />
          </mxGeometry>
        </mxCell>
        <mxCell id="PYUOiwf6VcUCYmX6G_hZ-19" style="connectable=0;recursiveResize=0;strokeColor=inherit;fillColor=none;align=center;whiteSpace=wrap;html=1;fontFamily=Times New Roman;" vertex="1" parent="byq470MMegWLu4DMmpn8-66">
          <mxGeometry x="175" width="88" height="45" as="geometry">
            <mxRectangle width="88" height="45" as="alternateBounds" />
          </mxGeometry>
        </mxCell>
        <mxCell id="byq470MMegWLu4DMmpn8-68" style="connectable=0;recursiveResize=0;strokeColor=inherit;fillColor=none;align=center;whiteSpace=wrap;html=1;fontFamily=Times New Roman;" vertex="1" parent="byq470MMegWLu4DMmpn8-66">
          <mxGeometry x="263" width="88" height="45" as="geometry">
            <mxRectangle width="88" height="45" as="alternateBounds" />
          </mxGeometry>
        </mxCell>
        <mxCell id="PYUOiwf6VcUCYmX6G_hZ-30" style="connectable=0;recursiveResize=0;strokeColor=inherit;fillColor=none;align=center;whiteSpace=wrap;html=1;fontFamily=Times New Roman;" vertex="1" parent="byq470MMegWLu4DMmpn8-66">
          <mxGeometry x="351" width="89" height="45" as="geometry">
            <mxRectangle width="89" height="45" as="alternateBounds" />
          </mxGeometry>
        </mxCell>
        <mxCell id="byq470MMegWLu4DMmpn8-69" style="connectable=0;recursiveResize=0;strokeColor=inherit;fillColor=none;align=center;whiteSpace=wrap;html=1;fontFamily=Times New Roman;" vertex="1" parent="byq470MMegWLu4DMmpn8-66">
          <mxGeometry x="440" width="86" height="45" as="geometry">
            <mxRectangle width="86" height="45" as="alternateBounds" />
          </mxGeometry>
        </mxCell>
        <mxCell id="byq470MMegWLu4DMmpn8-70" style="connectable=0;recursiveResize=0;strokeColor=inherit;fillColor=none;align=center;whiteSpace=wrap;html=1;fontFamily=Times New Roman;" vertex="1" parent="byq470MMegWLu4DMmpn8-66">
          <mxGeometry x="526" width="87" height="45" as="geometry">
            <mxRectangle width="87" height="45" as="alternateBounds" />
          </mxGeometry>
        </mxCell>
        <mxCell id="byq470MMegWLu4DMmpn8-71" style="connectable=0;recursiveResize=0;strokeColor=inherit;fillColor=none;align=center;whiteSpace=wrap;html=1;fontFamily=Times New Roman;" vertex="1" parent="byq470MMegWLu4DMmpn8-66">
          <mxGeometry x="613" width="87" height="45" as="geometry">
            <mxRectangle width="87" height="45" as="alternateBounds" />
          </mxGeometry>
        </mxCell>
        <mxCell id="byq470MMegWLu4DMmpn8-72" style="shape=tableRow;horizontal=0;startSize=0;swimlaneHead=0;swimlaneBody=0;top=0;left=0;bottom=0;right=0;dropTarget=0;collapsible=0;recursiveResize=0;expand=0;fontStyle=0;fillColor=none;strokeColor=inherit;fontFamily=Times New Roman;" vertex="1" parent="byq470MMegWLu4DMmpn8-23">
          <mxGeometry y="379" width="700" height="45" as="geometry" />
        </mxCell>
        <mxCell id="byq470MMegWLu4DMmpn8-73" style="connectable=0;recursiveResize=0;strokeColor=inherit;fillColor=none;align=center;whiteSpace=wrap;html=1;fontFamily=Times New Roman;" vertex="1" parent="byq470MMegWLu4DMmpn8-72">
          <mxGeometry width="87" height="45" as="geometry">
            <mxRectangle width="87" height="45" as="alternateBounds" />
          </mxGeometry>
        </mxCell>
        <mxCell id="PYUOiwf6VcUCYmX6G_hZ-9" style="connectable=0;recursiveResize=0;strokeColor=inherit;fillColor=none;align=center;whiteSpace=wrap;html=1;fontFamily=Times New Roman;" vertex="1" parent="byq470MMegWLu4DMmpn8-72">
          <mxGeometry x="87" width="88" height="45" as="geometry">
            <mxRectangle width="88" height="45" as="alternateBounds" />
          </mxGeometry>
        </mxCell>
        <mxCell id="PYUOiwf6VcUCYmX6G_hZ-20" style="connectable=0;recursiveResize=0;strokeColor=inherit;fillColor=none;align=center;whiteSpace=wrap;html=1;fontFamily=Times New Roman;" vertex="1" parent="byq470MMegWLu4DMmpn8-72">
          <mxGeometry x="175" width="88" height="45" as="geometry">
            <mxRectangle width="88" height="45" as="alternateBounds" />
          </mxGeometry>
        </mxCell>
        <mxCell id="byq470MMegWLu4DMmpn8-74" style="connectable=0;recursiveResize=0;strokeColor=inherit;fillColor=none;align=center;whiteSpace=wrap;html=1;fontFamily=Times New Roman;" vertex="1" parent="byq470MMegWLu4DMmpn8-72">
          <mxGeometry x="263" width="88" height="45" as="geometry">
            <mxRectangle width="88" height="45" as="alternateBounds" />
          </mxGeometry>
        </mxCell>
        <mxCell id="PYUOiwf6VcUCYmX6G_hZ-31" style="connectable=0;recursiveResize=0;strokeColor=inherit;fillColor=none;align=center;whiteSpace=wrap;html=1;fontFamily=Times New Roman;" vertex="1" parent="byq470MMegWLu4DMmpn8-72">
          <mxGeometry x="351" width="89" height="45" as="geometry">
            <mxRectangle width="89" height="45" as="alternateBounds" />
          </mxGeometry>
        </mxCell>
        <mxCell id="byq470MMegWLu4DMmpn8-75" style="connectable=0;recursiveResize=0;strokeColor=inherit;fillColor=none;align=center;whiteSpace=wrap;html=1;fontFamily=Times New Roman;" vertex="1" parent="byq470MMegWLu4DMmpn8-72">
          <mxGeometry x="440" width="86" height="45" as="geometry">
            <mxRectangle width="86" height="45" as="alternateBounds" />
          </mxGeometry>
        </mxCell>
        <mxCell id="byq470MMegWLu4DMmpn8-76" style="connectable=0;recursiveResize=0;strokeColor=inherit;fillColor=none;align=center;whiteSpace=wrap;html=1;fontFamily=Times New Roman;" vertex="1" parent="byq470MMegWLu4DMmpn8-72">
          <mxGeometry x="526" width="87" height="45" as="geometry">
            <mxRectangle width="87" height="45" as="alternateBounds" />
          </mxGeometry>
        </mxCell>
        <mxCell id="byq470MMegWLu4DMmpn8-77" style="connectable=0;recursiveResize=0;strokeColor=inherit;fillColor=none;align=center;whiteSpace=wrap;html=1;fontFamily=Times New Roman;" vertex="1" parent="byq470MMegWLu4DMmpn8-72">
          <mxGeometry x="613" width="87" height="45" as="geometry">
            <mxRectangle width="87" height="45" as="alternateBounds" />
          </mxGeometry>
        </mxCell>
        <mxCell id="byq470MMegWLu4DMmpn8-78" style="shape=tableRow;horizontal=0;startSize=0;swimlaneHead=0;swimlaneBody=0;top=0;left=0;bottom=0;right=0;dropTarget=0;collapsible=0;recursiveResize=0;expand=0;fontStyle=0;fillColor=none;strokeColor=inherit;fontFamily=Times New Roman;" vertex="1" parent="byq470MMegWLu4DMmpn8-23">
          <mxGeometry y="424" width="700" height="45" as="geometry" />
        </mxCell>
        <mxCell id="byq470MMegWLu4DMmpn8-79" style="connectable=0;recursiveResize=0;strokeColor=inherit;fillColor=none;align=center;whiteSpace=wrap;html=1;fontFamily=Times New Roman;" vertex="1" parent="byq470MMegWLu4DMmpn8-78">
          <mxGeometry width="87" height="45" as="geometry">
            <mxRectangle width="87" height="45" as="alternateBounds" />
          </mxGeometry>
        </mxCell>
        <mxCell id="PYUOiwf6VcUCYmX6G_hZ-10" style="connectable=0;recursiveResize=0;strokeColor=inherit;fillColor=none;align=center;whiteSpace=wrap;html=1;fontFamily=Times New Roman;" vertex="1" parent="byq470MMegWLu4DMmpn8-78">
          <mxGeometry x="87" width="88" height="45" as="geometry">
            <mxRectangle width="88" height="45" as="alternateBounds" />
          </mxGeometry>
        </mxCell>
        <mxCell id="PYUOiwf6VcUCYmX6G_hZ-21" style="connectable=0;recursiveResize=0;strokeColor=inherit;fillColor=none;align=center;whiteSpace=wrap;html=1;fontFamily=Times New Roman;" vertex="1" parent="byq470MMegWLu4DMmpn8-78">
          <mxGeometry x="175" width="88" height="45" as="geometry">
            <mxRectangle width="88" height="45" as="alternateBounds" />
          </mxGeometry>
        </mxCell>
        <mxCell id="byq470MMegWLu4DMmpn8-80" style="connectable=0;recursiveResize=0;strokeColor=inherit;fillColor=none;align=center;whiteSpace=wrap;html=1;fontFamily=Times New Roman;" vertex="1" parent="byq470MMegWLu4DMmpn8-78">
          <mxGeometry x="263" width="88" height="45" as="geometry">
            <mxRectangle width="88" height="45" as="alternateBounds" />
          </mxGeometry>
        </mxCell>
        <mxCell id="PYUOiwf6VcUCYmX6G_hZ-32" style="connectable=0;recursiveResize=0;strokeColor=inherit;fillColor=none;align=center;whiteSpace=wrap;html=1;fontFamily=Times New Roman;" vertex="1" parent="byq470MMegWLu4DMmpn8-78">
          <mxGeometry x="351" width="89" height="45" as="geometry">
            <mxRectangle width="89" height="45" as="alternateBounds" />
          </mxGeometry>
        </mxCell>
        <mxCell id="byq470MMegWLu4DMmpn8-81" style="connectable=0;recursiveResize=0;strokeColor=inherit;fillColor=none;align=center;whiteSpace=wrap;html=1;fontFamily=Times New Roman;" vertex="1" parent="byq470MMegWLu4DMmpn8-78">
          <mxGeometry x="440" width="86" height="45" as="geometry">
            <mxRectangle width="86" height="45" as="alternateBounds" />
          </mxGeometry>
        </mxCell>
        <mxCell id="byq470MMegWLu4DMmpn8-82" style="connectable=0;recursiveResize=0;strokeColor=inherit;fillColor=none;align=center;whiteSpace=wrap;html=1;fontFamily=Times New Roman;" vertex="1" parent="byq470MMegWLu4DMmpn8-78">
          <mxGeometry x="526" width="87" height="45" as="geometry">
            <mxRectangle width="87" height="45" as="alternateBounds" />
          </mxGeometry>
        </mxCell>
        <mxCell id="byq470MMegWLu4DMmpn8-83" style="connectable=0;recursiveResize=0;strokeColor=inherit;fillColor=none;align=center;whiteSpace=wrap;html=1;fontFamily=Times New Roman;" vertex="1" parent="byq470MMegWLu4DMmpn8-78">
          <mxGeometry x="613" width="87" height="45" as="geometry">
            <mxRectangle width="87" height="45" as="alternateBounds" />
          </mxGeometry>
        </mxCell>
        <mxCell id="byq470MMegWLu4DMmpn8-84" style="shape=tableRow;horizontal=0;startSize=0;swimlaneHead=0;swimlaneBody=0;top=0;left=0;bottom=0;right=0;dropTarget=0;collapsible=0;recursiveResize=0;expand=0;fontStyle=0;fillColor=none;strokeColor=inherit;fontFamily=Times New Roman;" vertex="1" parent="byq470MMegWLu4DMmpn8-23">
          <mxGeometry y="469" width="700" height="46" as="geometry" />
        </mxCell>
        <mxCell id="byq470MMegWLu4DMmpn8-85" style="connectable=0;recursiveResize=0;strokeColor=inherit;fillColor=none;align=center;whiteSpace=wrap;html=1;fontFamily=Times New Roman;" vertex="1" parent="byq470MMegWLu4DMmpn8-84">
          <mxGeometry width="87" height="46" as="geometry">
            <mxRectangle width="87" height="46" as="alternateBounds" />
          </mxGeometry>
        </mxCell>
        <mxCell id="PYUOiwf6VcUCYmX6G_hZ-11" style="connectable=0;recursiveResize=0;strokeColor=inherit;fillColor=none;align=center;whiteSpace=wrap;html=1;fontFamily=Times New Roman;" vertex="1" parent="byq470MMegWLu4DMmpn8-84">
          <mxGeometry x="87" width="88" height="46" as="geometry">
            <mxRectangle width="88" height="46" as="alternateBounds" />
          </mxGeometry>
        </mxCell>
        <mxCell id="PYUOiwf6VcUCYmX6G_hZ-22" style="connectable=0;recursiveResize=0;strokeColor=inherit;fillColor=none;align=center;whiteSpace=wrap;html=1;fontFamily=Times New Roman;" vertex="1" parent="byq470MMegWLu4DMmpn8-84">
          <mxGeometry x="175" width="88" height="46" as="geometry">
            <mxRectangle width="88" height="46" as="alternateBounds" />
          </mxGeometry>
        </mxCell>
        <mxCell id="byq470MMegWLu4DMmpn8-86" style="connectable=0;recursiveResize=0;strokeColor=inherit;fillColor=none;align=center;whiteSpace=wrap;html=1;fontFamily=Times New Roman;" vertex="1" parent="byq470MMegWLu4DMmpn8-84">
          <mxGeometry x="263" width="88" height="46" as="geometry">
            <mxRectangle width="88" height="46" as="alternateBounds" />
          </mxGeometry>
        </mxCell>
        <mxCell id="PYUOiwf6VcUCYmX6G_hZ-33" style="connectable=0;recursiveResize=0;strokeColor=inherit;fillColor=none;align=center;whiteSpace=wrap;html=1;fontFamily=Times New Roman;" vertex="1" parent="byq470MMegWLu4DMmpn8-84">
          <mxGeometry x="351" width="89" height="46" as="geometry">
            <mxRectangle width="89" height="46" as="alternateBounds" />
          </mxGeometry>
        </mxCell>
        <mxCell id="byq470MMegWLu4DMmpn8-87" style="connectable=0;recursiveResize=0;strokeColor=inherit;fillColor=none;align=center;whiteSpace=wrap;html=1;fontFamily=Times New Roman;" vertex="1" parent="byq470MMegWLu4DMmpn8-84">
          <mxGeometry x="440" width="86" height="46" as="geometry">
            <mxRectangle width="86" height="46" as="alternateBounds" />
          </mxGeometry>
        </mxCell>
        <mxCell id="byq470MMegWLu4DMmpn8-88" style="connectable=0;recursiveResize=0;strokeColor=inherit;fillColor=none;align=center;whiteSpace=wrap;html=1;fontFamily=Times New Roman;" vertex="1" parent="byq470MMegWLu4DMmpn8-84">
          <mxGeometry x="526" width="87" height="46" as="geometry">
            <mxRectangle width="87" height="46" as="alternateBounds" />
          </mxGeometry>
        </mxCell>
        <mxCell id="byq470MMegWLu4DMmpn8-89" style="connectable=0;recursiveResize=0;strokeColor=inherit;fillColor=none;align=center;whiteSpace=wrap;html=1;fontFamily=Times New Roman;" vertex="1" parent="byq470MMegWLu4DMmpn8-84">
          <mxGeometry x="613" width="87" height="46" as="geometry">
            <mxRectangle width="87" height="46" as="alternateBounds" />
          </mxGeometry>
        </mxCell>
        <mxCell id="byq470MMegWLu4DMmpn8-90" value="" style="group;fontFamily=Times New Roman;" vertex="1" connectable="0" parent="1">
          <mxGeometry x="963.1582350892901" y="455.08" width="265" height="374.92" as="geometry" />
        </mxCell>
        <mxCell id="byq470MMegWLu4DMmpn8-91" value="" style="rounded=0;whiteSpace=wrap;html=1;rotation=90;strokeWidth=0;shadow=1;fontFamily=Times New Roman;" vertex="1" parent="byq470MMegWLu4DMmpn8-90">
          <mxGeometry x="-246.23" y="21.72" width="511.23" height="23.44" as="geometry" />
        </mxCell>
        <mxCell id="byq470MMegWLu4DMmpn8-92" value="" style="rounded=0;whiteSpace=wrap;html=1;rotation=90;fillColor=light-dark(#dae8fc, #ededed);fontFamily=Times New Roman;" vertex="1" parent="byq470MMegWLu4DMmpn8-90">
          <mxGeometry y="-185.82406" width="18.758529656553215" height="11.71625" as="geometry" />
        </mxCell>
        <mxCell id="byq470MMegWLu4DMmpn8-93" value="" style="verticalLabelPosition=bottom;verticalAlign=top;html=1;shape=mxgraph.basic.acute_triangle;dx=0.5;gradientColor=light-dark(#333333, #ededed);fontFamily=Times New Roman;" vertex="1" parent="byq470MMegWLu4DMmpn8-90">
          <mxGeometry x="2.813779448482982" y="-216.53107124999997" width="14.068897242414911" height="18.476526250000003" as="geometry" />
        </mxCell>
        <mxCell id="byq470MMegWLu4DMmpn8-94" value="" style="verticalLabelPosition=bottom;verticalAlign=top;html=1;shape=mxgraph.basic.acute_triangle;dx=0.5;gradientColor=light-dark(#333333, #ededed);rotation=-180;fontFamily=Times New Roman;" vertex="1" parent="byq470MMegWLu4DMmpn8-90">
          <mxGeometry x="2.813779448482982" y="264.9732900403227" width="14.068897242414911" height="18.476526250000003" as="geometry" />
        </mxCell>
        <mxCell id="c63AyjbdB0I5ag82kwYN-1" value="" style="group" vertex="1" connectable="0" parent="1">
          <mxGeometry x="190" y="180" width="180" height="148" as="geometry" />
        </mxCell>
        <mxCell id="7_U6yzIYzgvokkV2j78U-11" value="" style="rounded=0;whiteSpace=wrap;html=1;align=left;verticalAlign=top;fillColor=#f5f5f5;strokeColor=#666666;fontColor=#333333;container=0;" vertex="1" parent="c63AyjbdB0I5ag82kwYN-1">
          <mxGeometry width="180" height="148" as="geometry" />
        </mxCell>
        <mxCell id="7_U6yzIYzgvokkV2j78U-12" value="" style="rounded=0;whiteSpace=wrap;html=1;strokeWidth=0;shadow=1;container=0;" vertex="1" parent="c63AyjbdB0I5ag82kwYN-1">
          <mxGeometry x="165" width="14.5" height="148" as="geometry" />
        </mxCell>
        <mxCell id="7_U6yzIYzgvokkV2j78U-13" value="" style="triangle;whiteSpace=wrap;html=1;rotation=90;fillColor=light-dark(#1f1f1f, #ededed);fontFamily=Times New Roman;container=0;" vertex="1" parent="c63AyjbdB0I5ag82kwYN-1">
          <mxGeometry x="168" y="135" width="8" height="10" as="geometry" />
        </mxCell>
        <mxCell id="7_U6yzIYzgvokkV2j78U-14" value="" style="triangle;whiteSpace=wrap;html=1;rotation=-90;fillColor=light-dark(#1f1f1f, #ededed);fontFamily=Times New Roman;container=0;" vertex="1" parent="c63AyjbdB0I5ag82kwYN-1">
          <mxGeometry x="168" y="3" width="8" height="10" as="geometry" />
        </mxCell>
        <mxCell id="7_U6yzIYzgvokkV2j78U-15" value="" style="rounded=0;whiteSpace=wrap;html=1;fillColor=light-dark(#1f1f1f, #ededed);container=0;" vertex="1" parent="c63AyjbdB0I5ag82kwYN-1">
          <mxGeometry x="167" y="17" width="10" height="10" as="geometry" />
        </mxCell>
        <mxCell id="7_U6yzIYzgvokkV2j78U-18" value="" style="endArrow=none;html=1;rounded=0;entryX=0;entryY=0.25;entryDx=0;entryDy=0;exitX=0;exitY=0.25;exitDx=0;exitDy=0;shadow=1;" edge="1" parent="c63AyjbdB0I5ag82kwYN-1">
          <mxGeometry width="50" height="50" relative="1" as="geometry">
            <mxPoint y="72" as="sourcePoint" />
            <mxPoint x="165" y="72" as="targetPoint" />
            <Array as="points">
              <mxPoint x="60" y="73" />
            </Array>
          </mxGeometry>
        </mxCell>
        <mxCell id="7_U6yzIYzgvokkV2j78U-19" value="" style="endArrow=none;html=1;rounded=0;entryX=0;entryY=0.25;entryDx=0;entryDy=0;exitX=0;exitY=0.25;exitDx=0;exitDy=0;shadow=1;" edge="1" parent="c63AyjbdB0I5ag82kwYN-1">
          <mxGeometry width="50" height="50" relative="1" as="geometry">
            <mxPoint y="109" as="sourcePoint" />
            <mxPoint x="165" y="109" as="targetPoint" />
            <Array as="points">
              <mxPoint x="60" y="110" />
            </Array>
          </mxGeometry>
        </mxCell>
        <mxCell id="7_U6yzIYzgvokkV2j78U-20" value="Myint&lt;div&gt;011021&lt;/div&gt;" style="text;html=1;align=left;verticalAlign=middle;whiteSpace=wrap;rounded=0;container=0;" vertex="1" parent="c63AyjbdB0I5ag82kwYN-1">
          <mxGeometry x="1" y="42" width="60" height="30" as="geometry" />
        </mxCell>
        <mxCell id="7_U6yzIYzgvokkV2j78U-21" value="Aung&lt;div&gt;011022&lt;/div&gt;" style="text;html=1;align=left;verticalAlign=middle;whiteSpace=wrap;rounded=0;container=0;" vertex="1" parent="c63AyjbdB0I5ag82kwYN-1">
          <mxGeometry x="1" y="75" width="60" height="30" as="geometry" />
        </mxCell>
        <mxCell id="7_U6yzIYzgvokkV2j78U-22" value="Thiri&lt;div&gt;011023&lt;/div&gt;" style="text;html=1;align=left;verticalAlign=middle;whiteSpace=wrap;rounded=0;container=0;" vertex="1" parent="c63AyjbdB0I5ag82kwYN-1">
          <mxGeometry x="1" y="114" width="60" height="30" as="geometry" />
        </mxCell>
        <mxCell id="7_U6yzIYzgvokkV2j78U-23" value="&lt;span style=&quot;&quot;&gt;Theint Thiri&lt;/span&gt;&lt;div style=&quot;&quot;&gt;011020&lt;/div&gt;" style="rounded=0;whiteSpace=wrap;html=1;strokeWidth=0;align=left;container=0;" vertex="1" parent="c63AyjbdB0I5ag82kwYN-1">
          <mxGeometry width="165" height="38" as="geometry" />
        </mxCell>
        <mxCell id="7_U6yzIYzgvokkV2j78U-16" value="" style="endArrow=none;html=1;rounded=0;entryX=0;entryY=0.25;entryDx=0;entryDy=0;exitX=0;exitY=0.25;exitDx=0;exitDy=0;shadow=1;" edge="1" parent="c63AyjbdB0I5ag82kwYN-1" source="7_U6yzIYzgvokkV2j78U-11" target="7_U6yzIYzgvokkV2j78U-12">
          <mxGeometry width="50" height="50" relative="1" as="geometry">
            <mxPoint x="74" y="103" as="sourcePoint" />
            <mxPoint x="138.81305080488391" y="66.25999999999999" as="targetPoint" />
            <Array as="points">
              <mxPoint x="60" y="38" />
            </Array>
          </mxGeometry>
        </mxCell>
      </root>
    </mxGraphModel>
  </diagram>
</mxfile>
